<svg xmlns="http://www.w3.org/2000/svg" xmlns:xlink="http://www.w3.org/1999/xlink" width="251.668" height="151.328" viewBox="0 0 251.668 151.328">
  <defs>
    <clipPath id="clip-path">
      <path id="Path_124" data-name="Path 124" d="M1274.553,250.408a62.576,62.576,0,1,0,62.576,62.576A62.576,62.576,0,0,0,1274.553,250.408Zm.341,114.869a52.805,52.805,0,1,1,52.8-52.805A52.8,52.8,0,0,1,1274.894,365.277Z" transform="translate(-1211.977 -250.408)" fill="none"/>
    </clipPath>
    <linearGradient id="linear-gradient" x1="0.5" y1="1" x2="0.5" gradientUnits="objectBoundingBox">
      <stop offset="0" stop-color="#fff"/>
      <stop offset="0.286" stop-color="#fafafa"/>
      <stop offset="0.595" stop-color="#edeeee"/>
      <stop offset="0.913" stop-color="#d8d9da"/>
      <stop offset="1" stop-color="#d1d3d4"/>
    </linearGradient>
    <linearGradient id="linear-gradient-2" x1="1.304" y1="0.619" x2="-0.304" y2="0.381" gradientUnits="objectBoundingBox">
      <stop offset="0" stop-color="#fff"/>
      <stop offset="1" stop-color="#e6e7e8"/>
    </linearGradient>
    <linearGradient id="linear-gradient-3" x1="0.603" y1="0.73" x2="-0.305" y2="0.284" xlink:href="#linear-gradient-2"/>
    <linearGradient id="linear-gradient-4" x1="0.034" y1="0.633" x2="0.883" y2="0.495" gradientUnits="objectBoundingBox">
      <stop offset="0" stop-color="#a39d9f"/>
      <stop offset="0.633" stop-color="#2a2627"/>
      <stop offset="1" stop-color="#a39d9f"/>
    </linearGradient>
    <linearGradient id="linear-gradient-5" x1="0.5" y1="1" x2="0.5" gradientUnits="objectBoundingBox">
      <stop offset="0" stop-color="#d1d3d4"/>
      <stop offset="0.44" stop-color="#cdcfd0"/>
      <stop offset="0.855" stop-color="#c1c3c5"/>
      <stop offset="1" stop-color="#bcbec0"/>
    </linearGradient>
    <linearGradient id="linear-gradient-6" x1="0.5" y1="1" x2="0.5" y2="0" xlink:href="#linear-gradient-4"/>
    <linearGradient id="linear-gradient-7" x1="1.07" y1="0.739" x2="0.036" y2="0.476" xlink:href="#linear-gradient-4"/>
    <linearGradient id="linear-gradient-8" x1="0.993" y1="1.02" x2="0.195" y2="-0.283" xlink:href="#linear-gradient-2"/>
    <linearGradient id="linear-gradient-11" x1="0" y1="0.5" x2="1" y2="0.5" xlink:href="#linear-gradient-4"/>
    <linearGradient id="linear-gradient-12" x1="0.972" y1="0.805" x2="-0.136" y2="0.409" xlink:href="#linear-gradient-4"/>
    <linearGradient id="linear-gradient-17" x1="1.057" y1="0.755" x2="0.031" y2="0.476" xlink:href="#linear-gradient-4"/>
    <linearGradient id="linear-gradient-18" x1="0.981" y1="1.063" x2="0.194" y2="-0.317" xlink:href="#linear-gradient-2"/>
    <linearGradient id="linear-gradient-19" x1="-0.036" y1="0.558" x2="0.813" y2="0.466" gradientUnits="objectBoundingBox">
      <stop offset="0" stop-color="#d1d3d4"/>
      <stop offset="0.232" stop-color="#cdcfd0"/>
      <stop offset="0.45" stop-color="#c1c3c5"/>
      <stop offset="0.663" stop-color="#aeb0b2"/>
      <stop offset="0.872" stop-color="#949698"/>
      <stop offset="1" stop-color="#808285"/>
    </linearGradient>
    <linearGradient id="linear-gradient-21" x1="0.5" y1="1" x2="0.5" y2="0" xlink:href="#linear-gradient-2"/>
    <linearGradient id="linear-gradient-22" x1="0.5" y1="1" x2="0.5" gradientUnits="objectBoundingBox">
      <stop offset="0" stop-color="#fff"/>
      <stop offset="1" stop-color="#d1d3d4"/>
    </linearGradient>
    <linearGradient id="linear-gradient-29" x1="0.7" y1="-0.012" x2="0.488" y2="1.03" xlink:href="#linear-gradient-4"/>
    <linearGradient id="linear-gradient-30" x1="-10.675" y1="-20.48" x2="-10.675" y2="-21.871" xlink:href="#linear-gradient-4"/>
    <linearGradient id="linear-gradient-31" x1="-21.807" y1="-24.769" x2="-21.807" y2="-25.393" xlink:href="#linear-gradient-4"/>
    <linearGradient id="linear-gradient-32" x1="-17.748" y1="-39.141" x2="-17.748" y2="-40.104" gradientUnits="objectBoundingBox">
      <stop offset="0" stop-color="#e6e7e8"/>
      <stop offset="0.261" stop-color="#e2e3e4"/>
      <stop offset="0.507" stop-color="#d6d8d9"/>
      <stop offset="0.747" stop-color="#c3c5c7"/>
      <stop offset="0.983" stop-color="#a9abae"/>
      <stop offset="1" stop-color="#a7a9ac"/>
    </linearGradient>
    <linearGradient id="linear-gradient-33" x1="-11.934" y1="-37.749" x2="-11.934" y2="-39.387" xlink:href="#linear-gradient-4"/>
    <linearGradient id="linear-gradient-34" x1="-10.478" y1="-38.917" x2="-10.644" y2="-37.23" gradientUnits="objectBoundingBox">
      <stop offset="0" stop-color="#fff"/>
      <stop offset="0.405" stop-color="#fbfbfb"/>
      <stop offset="0.787" stop-color="#eff0f1"/>
      <stop offset="1" stop-color="#e6e7e8"/>
    </linearGradient>
    <linearGradient id="linear-gradient-38" x1="0.5" y1="1" x2="0.5" gradientUnits="objectBoundingBox">
      <stop offset="0" stop-color="#fff"/>
      <stop offset="0.02" stop-color="#fefefe"/>
      <stop offset="0.589" stop-color="#eceded"/>
      <stop offset="1" stop-color="#e6e7e8"/>
    </linearGradient>
    <linearGradient id="linear-gradient-39" x1="0.329" y1="-0.271" x2="0.5" y2="0.744" xlink:href="#linear-gradient-32"/>
    <linearGradient id="linear-gradient-40" x1="0.5" y1="1" x2="0.5" y2="0" xlink:href="#linear-gradient-19"/>
    <linearGradient id="linear-gradient-48" x1="-0.016" y1="0.076" x2="1.143" y2="0.646" xlink:href="#linear-gradient-4"/>
    <linearGradient id="linear-gradient-52" x1="-0.086" y1="0.22" x2="0.974" y2="0.756" xlink:href="#linear-gradient-4"/>
    <linearGradient id="linear-gradient-53" x1="0.316" y1="0.367" x2="0.944" y2="0.82" xlink:href="#linear-gradient-4"/>
    <linearGradient id="linear-gradient-54" x1="1.069" y1="-1.461" x2="0.32" y2="0.576" xlink:href="#linear-gradient-4"/>
    <linearGradient id="linear-gradient-59" x1="0.5" y1="1" x2="0.5" y2="0" xlink:href="#linear-gradient-34"/>
    <linearGradient id="linear-gradient-60" x1="0.464" y1="0.248" x2="1.134" y2="0.796" xlink:href="#linear-gradient-4"/>
    <linearGradient id="linear-gradient-61" x1="0.504" y1="0.131" x2="0.43" y2="0.964" xlink:href="#linear-gradient-4"/>
    <linearGradient id="linear-gradient-62" x1="0.576" y1="-0.051" x2="0.255" y2="0.973" xlink:href="#linear-gradient-4"/>
    <linearGradient id="linear-gradient-63" x1="0.5" y1="0" x2="0.5" y2="1" xlink:href="#linear-gradient-32"/>
    <linearGradient id="linear-gradient-67" x1="0.282" y1="-0.642" x2="0.644" y2="0.811" xlink:href="#linear-gradient-4"/>
    <linearGradient id="linear-gradient-68" x1="0.5" y1="0" x2="0.5" y2="1" xlink:href="#linear-gradient-4"/>
    <linearGradient id="linear-gradient-72" x1="0.149" y1="-0.152" x2="0.511" y2="0.5" xlink:href="#linear-gradient-4"/>
    <linearGradient id="linear-gradient-74" x1="0.563" y1="0.126" x2="0.437" y2="0.874" xlink:href="#linear-gradient-22"/>
    <linearGradient id="linear-gradient-76" x1="0.5" y1="1" x2="0.5" gradientUnits="objectBoundingBox">
      <stop offset="0" stop-color="#d1d3d4"/>
      <stop offset="0.317" stop-color="#cdcfd0"/>
      <stop offset="0.615" stop-color="#c1c3c5"/>
      <stop offset="0.905" stop-color="#aeb0b3"/>
      <stop offset="1" stop-color="#a7a9ac"/>
    </linearGradient>
    <linearGradient id="linear-gradient-90" x1="-0.99" y1="9.378" x2="-0.301" y2="9.921" xlink:href="#linear-gradient-4"/>
    <linearGradient id="linear-gradient-91" x1="-1.508" y1="9.519" x2="-0.819" y2="10.063" xlink:href="#linear-gradient-4"/>
    <linearGradient id="linear-gradient-92" x1="-5.018" y1="-23.11" x2="-4.195" y2="-22.139" xlink:href="#linear-gradient-4"/>
    <linearGradient id="linear-gradient-93" x1="-0.192" y1="10.013" x2="0.407" y2="11.514" xlink:href="#linear-gradient-4"/>
    <linearGradient id="linear-gradient-94" x1="-0.063" y1="4.028" x2="0.984" y2="-2.53" gradientUnits="objectBoundingBox">
      <stop offset="0" stop-color="#a39d9f"/>
      <stop offset="0.687" stop-color="#2a2627"/>
      <stop offset="0.8" stop-color="#565152"/>
      <stop offset="1" stop-color="#a39d9f"/>
    </linearGradient>
    <linearGradient id="linear-gradient-96" x1="0" y1="0.5" x2="1" y2="0.5" xlink:href="#linear-gradient-94"/>
    <linearGradient id="linear-gradient-98" x1="-0.438" y1="-11.116" x2="0.508" y2="-11.116" xlink:href="#linear-gradient-94"/>
    <linearGradient id="linear-gradient-99" x1="-0.463" y1="-7.494" x2="0.477" y2="-7.494" xlink:href="#linear-gradient-94"/>
  </defs>
  <g id="Group_16" data-name="Group 16" transform="translate(-786.431 -250.408)">
    <g id="Group_11" data-name="Group 11" transform="translate(833.697 250.408)">
      <path id="Path_6" data-name="Path 6" d="M1511.888,542.915h14.941v15.907l-3.589-2.244s.435-3.541-3.636-4.128c-.776,0-3.674.17-4.128,3.106.019.89.113,2.272.113,2.272l-3.7,4.355Z" transform="translate(-1451.542 -499.525)" fill="#b91f27"/>
      <path id="Path_7" data-name="Path 7" d="M1553.058,542.915h8.834v5.208Z" transform="translate(-1486.605 -499.525)" fill="#8d151e"/>
      <path id="Path_8" data-name="Path 8" d="M1546.563,662.125v7.328l-11.5-6.136,3.437-4.4a3.679,3.679,0,0,0,2.017-.341Z" transform="translate(-1471.276 -598.028)" fill="#8d151e"/>
      <path id="Path_9" data-name="Path 9" d="M1511.888,692.942l3.7-4.431,11.239,5.227v12.991l-14.941,1.591Z" transform="translate(-1451.542 -623.524)" fill="#b91f27"/>
      <path id="Path_10" data-name="Path 10" d="M1526.829,809.66v11.618l-14.941-9v-.909Z" transform="translate(-1451.542 -726.702)" fill="#c92229"/>
      <path id="Path_11" data-name="Path 11" d="M1526.829,835.789V847.2l-14.941-18.421v-1.646Z" transform="translate(-1451.542 -741.583)" fill="#a21b22"/>
      <path id="Path_12" data-name="Path 12" d="M1511.888,837.212v20.2s4.858,2.471,14.941,3.3v-5.014Z" transform="translate(-1451.542 -750.167)" fill="#5f181c"/>
      <path id="Path_13" data-name="Path 13" d="M1657.356,608.085h14.809v7.158l-6.477,6.779a7.747,7.747,0,0,0-2.879.265l-5.454-3.6S1657.413,608.142,1657.356,608.085Z" transform="translate(-1575.431 -555.028)" fill="#5f181c"/>
      <path id="Path_14" data-name="Path 14" d="M1663.77,718.741l-4.155,19.8-2.272-3.023V712.4l3.3,2.215C1661.017,717.526,1662.457,718.449,1663.77,718.741Z" transform="translate(-1575.42 -643.87)" fill="#a92125"/>
      <path id="Path_15" data-name="Path 15" d="M1685.2,696.7v23.67l-12.2,5.3-.341-.5,4.155-19.8a7.247,7.247,0,0,0,1.621.137c4.119-.313,3.277-5.208,3.277-5.208Z" transform="translate(-1588.466 -630.497)" fill="#991e23"/>
      <line id="Line_7" data-name="Line 7" x1="0.003" y2="0.013" transform="translate(88.351 74.855)" fill="none" stroke="#5f181c" stroke-miterlimit="10" stroke-width="1"/>
      <line id="Line_8" data-name="Line 8" x1="0.004" y2="0.024" transform="translate(84.192 94.673)" fill="none" stroke="#5f181c" stroke-miterlimit="10" stroke-width="1"/>
      <path id="Path_16" data-name="Path 16" d="M1657.356,866.34l.052,11.888,14.757,2.628v-5.312l-12.2-5.4Z" transform="translate(-1575.432 -774.975)" fill="#451417"/>
      <path id="Path_17" data-name="Path 17" d="M1686.73,854.979v10.893l-12.272-5.425Z" transform="translate(-1589.997 -765.298)" fill="#731315"/>
      <path id="Path_18" data-name="Path 18" d="M1657.7,945.626v7.46s9.1-.284,14.758-3.087v-1.666Z" transform="translate(-1575.726 -842.499)" fill="#731315"/>
      <path id="Path_19" data-name="Path 19" d="M1801.8,472.255h14.828l-6.363,10.964s-3.323-.568-4.715,2.216l-3.75-3.38Z" transform="translate(-1698.451 -439.347)" fill="#5f181c"/>
      <path id="Path_20" data-name="Path 20" d="M1865.23,472.255l-6.363,10.964a3.425,3.425,0,0,1,2.594,2.206h3.769S1865.173,472.255,1865.23,472.255Z" transform="translate(-1747.051 -439.347)" fill="#b91f27"/>
      <path id="Path_21" data-name="Path 21" d="M1805.552,541.7a5.066,5.066,0,0,0-.327,3.2l-3.423,3.48V538.319Z" transform="translate(-1698.451 -495.611)" fill="#b91f27"/>
      <path id="Path_22" data-name="Path 22" d="M1816.63,749.723v18.009s-6.874,8.181-14.828,12.157V751.967Z" transform="translate(-1698.451 -675.656)" fill="#991e23"/>
      <path id="Path_23" data-name="Path 23" d="M1816.63,587.915h-3.778a3.9,3.9,0,0,1-4.516,1.974l-6.533,6.832v5.17l9.885,11.618,4.943-1.591Z" transform="translate(-1698.451 -537.85)" fill="#b91f27"/>
      <path id="Path_24" data-name="Path 24" d="M1811.688,693.745l-5.425,6.221-4.46-5.312V682.128Z" transform="translate(-1698.452 -618.088)" fill="#5f181c"/>
      <g id="Group_9" data-name="Group 9" transform="translate(15.858)">
        <g id="Group_8" data-name="Group 8" clip-path="url(#clip-path)">
          <g id="Group_7" data-name="Group 7" transform="translate(-11.003 -36.95)">
            <path id="Path_25" data-name="Path 25" d="M1178.012,197.629l4.234,9.812,11.968-9.812Z" transform="translate(-1172.048 -168.508)" fill="url(#linear-gradient)"/>
            <path id="Path_26" data-name="Path 26" d="M1182.246,207.44l-4.234-2.249v-7.563Z" transform="translate(-1172.048 -168.508)" fill="url(#linear-gradient-2)"/>
            <path id="Path_27" data-name="Path 27" d="M1182.246,250.861l-4.234,4v-6.249Z" transform="translate(-1172.048 -211.929)" fill="url(#linear-gradient-3)"/>
            <path id="Path_28" data-name="Path 28" d="M1206.552,207.44l17,10.427-5.031-20.238Z" transform="translate(-1196.355 -168.508)" fill="url(#linear-gradient-4)"/>
            <path id="Path_29" data-name="Path 29" d="M1182.246,263.773l-4.234,4,21.233,6.427Z" transform="translate(-1172.048 -224.841)" fill="url(#linear-gradient-5)"/>
            <path id="Path_30" data-name="Path 30" d="M1656.733,263.773l14.684,23.839,11.968-9.812Z" transform="translate(-1579.757 -224.841)" fill="url(#linear-gradient-6)"/>
            <path id="Path_31" data-name="Path 31" d="M1642.062,287.612l-19.8,3.025,5.113-26.864Z" transform="translate(-1550.402 -224.841)" fill="url(#linear-gradient-7)"/>
            <path id="Path_32" data-name="Path 32" d="M1642.062,424.48l1.436,9.452-21.233-6.427Z" transform="translate(-1550.402 -361.709)" fill="url(#linear-gradient-8)"/>
            <path id="Path_33" data-name="Path 33" d="M1755.725,368.148l17,10.427-5.031-20.238Z" transform="translate(-1664.064 -305.377)" fill="url(#linear-gradient-4)"/>
            <path id="Path_34" data-name="Path 34" d="M1755.725,424.48l1.436,9.452,15.563.975Z" transform="translate(-1664.064 -361.709)" fill="url(#linear-gradient-5)"/>
            <path id="Path_35" data-name="Path 35" d="M1836.408,358.336l21.018,14.593-9.63-9.19Z" transform="translate(-1732.779 -305.377)" fill="url(#linear-gradient-11)"/>
            <path id="Path_36" data-name="Path 36" d="M1857.426,372.929l-15.987,5.645-5.031-20.238Z" transform="translate(-1732.779 -305.377)" fill="url(#linear-gradient-12)"/>
            <path id="Path_37" data-name="Path 37" d="M1886.309,456.714l10.421,4.252-26.408,1.394Z" transform="translate(-1761.662 -389.162)" fill="url(#linear-gradient-11)"/>
            <path id="Path_38" data-name="Path 38" d="M1922.809,403.952l17.364,3.891-26.993-13.081Z" transform="translate(-1798.163 -336.4)" fill="url(#linear-gradient-11)"/>
            <path id="Path_39" data-name="Path 39" d="M1978.1,456.714l10.421,4.252,6.943-.361Z" transform="translate(-1853.451 -389.162)" fill="url(#linear-gradient-6)"/>
            <path id="Path_40" data-name="Path 40" d="M1629.356,701.714l16.275,24.005V705.477Z" transform="translate(-1556.44 -597.819)" fill="url(#linear-gradient)"/>
            <path id="Path_41" data-name="Path 41" d="M1616.276,725.719l-21.388,3.109L1600,701.714Z" transform="translate(-1527.085 -597.819)" fill="url(#linear-gradient-17)"/>
            <path id="Path_42" data-name="Path 42" d="M1616.276,863.543l1.436,9.452-22.824-6.342Z" transform="translate(-1527.085 -735.643)" fill="url(#linear-gradient-18)"/>
            <path id="Path_43" data-name="Path 43" d="M1739.074,747.324l17,10.427-17-30.669Z" transform="translate(-1649.883 -619.423)" fill="url(#linear-gradient-19)"/>
            <path id="Path_44" data-name="Path 44" d="M1739.074,863.543l1.436,9.452,15.563.975Z" transform="translate(-1649.883 -735.643)" fill="url(#linear-gradient-6)"/>
            <path id="Path_45" data-name="Path 45" d="M1292.267,217.867l14.273-5.213-19.3-15.025" transform="translate(-1265.07 -168.508)" fill="url(#linear-gradient-21)"/>
            <path id="Path_46" data-name="Path 46" d="M1417.373,298.919" transform="translate(-1375.903 -254.773)" fill="#fff"/>
            <path id="Path_47" data-name="Path 47" d="M1309.38,197.629l-2.84,15.025-19.3-15.025Z" transform="translate(-1265.07 -168.508)" fill="url(#linear-gradient-22)"/>
            <path id="Path_48" data-name="Path 48" d="M1420.213,197.629l15.978,6.675-18.818,8.35Z" transform="translate(-1375.902 -168.508)" fill="url(#linear-gradient-6)"/>
            <path id="Path_49" data-name="Path 49" d="M1417.373,250.978l3.977,17.783,14.842-26.132Z" transform="translate(-1375.902 -206.833)" fill="url(#linear-gradient-6)"/>
            <path id="Path_50" data-name="Path 50" d="M1335.423,298.919,1339.4,316.7l-18.25-12.569Z" transform="translate(-1293.953 -254.773)" fill="#787677"/>
            <g id="Group_4" data-name="Group 4" transform="translate(89.191 84.792)">
              <path id="Path_51" data-name="Path 51" d="M1756.073,757.751l12.976-16.713-29.975-13.956Z" transform="translate(-1739.074 -704.216)" fill="url(#linear-gradient-6)"/>
              <path id="Path_52" data-name="Path 52" d="M1941.147,821.163" transform="translate(-1911.172 -784.341)" fill="#fff"/>
              <path id="Path_53" data-name="Path 53" d="M1761.229,572.933l7.819,36.822L1739.074,595.8Z" transform="translate(-1739.074 -572.933)" fill="url(#linear-gradient-6)"/>
              <path id="Path_54" data-name="Path 54" d="M1888.434,572.933l26.638,28.472-18.818,8.35Z" transform="translate(-1866.279 -572.933)" fill="url(#linear-gradient-6)"/>
              <path id="Path_55" data-name="Path 55" d="M1941.148,773.223l3.977,17.783,14.842-26.132Z" transform="translate(-1911.173 -736.401)" fill="url(#linear-gradient-6)"/>
              <path id="Path_56" data-name="Path 56" d="M1866.647,821.163l3.977,17.783-16.953-1.069Z" transform="translate(-1836.672 -784.341)" fill="url(#linear-gradient-29)"/>
            </g>
            <g id="Group_5" data-name="Group 5" transform="translate(23.291 61.928)">
              <path id="Path_57" data-name="Path 57" d="M1294.82,441.661l25.825-3.172-3.669-19.695Z" transform="translate(-1294.82 -418.795)" fill="url(#linear-gradient-30)"/>
              <path id="Path_58" data-name="Path 58" d="M1468.916,551.564" transform="translate(-1443.091 -531.869)" fill="#fff"/>
              <path id="Path_59" data-name="Path 59" d="M1457.754,430.824l-9.9,7.665-3.669-19.695Z" transform="translate(-1422.027 -418.795)" fill="url(#linear-gradient-31)"/>
              <path id="Path_60" data-name="Path 60" d="M1478.819,499.889l6.166,12.77-16.069-5.1Z" transform="translate(-1443.092 -487.86)" fill="url(#linear-gradient-32)"/>
              <path id="Path_61" data-name="Path 61" d="M1427.449,551.564l-7.223,13.058,23.291-7.954Z" transform="translate(-1401.624 -531.869)" fill="url(#linear-gradient-33)"/>
              <path id="Path_62" data-name="Path 62" d="M1320.645,551.564l-7.223,13.058-18.6-9.887Z" transform="translate(-1294.82 -531.869)" fill="url(#linear-gradient-34)"/>
            </g>
            <path id="Path_63" data-name="Path 63" d="M1256.368,334.064l-11.283,13.72,29.533-1.151Z" transform="translate(-1229.171 -284.705)" fill="url(#linear-gradient-6)"/>
            <path id="Path_64" data-name="Path 64" d="M1199.245,297.167l-11.283,13.72-9.949-20.146Z" transform="translate(-1172.048 -247.808)" fill="url(#linear-gradient-6)"/>
            <path id="Path_65" data-name="Path 65" d="M1245.085,419.948l7.378,21.715,22.156-22.866Z" transform="translate(-1229.171 -356.87)" fill="url(#linear-gradient-6)"/>
            <path id="Path_66" data-name="Path 66" d="M1178.012,290.74V321.6l9.949-10.714Z" transform="translate(-1172.048 -247.808)" fill="url(#linear-gradient-38)"/>
            <path id="Path_67" data-name="Path 67" d="M1195.339,448.269l-17.327-11,9.949-10.715Z" transform="translate(-1172.048 -363.475)" fill="url(#linear-gradient-39)"/>
            <path id="Path_68" data-name="Path 68" d="M1874.728,155.88l-11.283,13.72,29.533-1.151Z" transform="translate(-1755.805 -132.953)" fill="url(#linear-gradient-40)"/>
            <path id="Path_69" data-name="Path 69" d="M1698.68,155.88,1687.4,169.6l-30.663,2.285Z" transform="translate(-1579.757 -132.953)" fill="url(#linear-gradient-11)"/>
            <path id="Path_70" data-name="Path 70" d="M1863.445,241.765l7.378,21.715,22.156-22.866Z" transform="translate(-1755.805 -205.117)" fill="url(#linear-gradient-6)"/>
            <path id="Path_71" data-name="Path 71" d="M1656.733,250.655l26.652,14.078,4.011-16.363Z" transform="translate(-1579.757 -211.723)" fill="url(#linear-gradient-6)"/>
            <path id="Path_72" data-name="Path 72" d="M1847.8,270.086l-11.388-5.352,4.011-16.363Z" transform="translate(-1732.779 -211.723)" fill="#908e8f"/>
            <path id="Path_73" data-name="Path 73" d="M1700.622,488.2l-11.283,13.72,29.533-1.151Z" transform="translate(-1607.526 -415.977)" fill="url(#linear-gradient-6)"/>
            <path id="Path_74" data-name="Path 74" d="M1643.5,451.3l-11.283,13.72-9.949-20.146Z" transform="translate(-1550.402 -379.079)" fill="url(#linear-gradient-6)"/>
            <path id="Path_75" data-name="Path 75" d="M1689.339,574.084l7.378,21.715,22.156-22.866Z" transform="translate(-1607.526 -488.141)" fill="url(#linear-gradient-6)"/>
            <path id="Path_76" data-name="Path 76" d="M1583.921,444.875l-6.678,20.931,16.628-.785Z" transform="translate(-1512.057 -379.079)" fill="url(#linear-gradient-38)"/>
            <path id="Path_77" data-name="Path 77" d="M1601.248,602.4l-24.005-20.931,16.628-.785Z" transform="translate(-1512.057 -494.747)" fill="url(#linear-gradient-48)"/>
            <path id="Path_78" data-name="Path 78" d="M1594.888,884.5l14.916,14.667,7.907-8.325Z" transform="translate(-1527.085 -753.495)" fill="url(#linear-gradient-6)"/>
            <path id="Path_79" data-name="Path 79" d="M1464.845,878.238l14.916,14.667L1442.2,877.147Z" transform="translate(-1397.043 -747.229)" fill="url(#linear-gradient)"/>
            <path id="Path_80" data-name="Path 80" d="M1669.271,935.587l-4.559,17.315,12.466-25.639Z" transform="translate(-1586.552 -789.91)" fill="url(#linear-gradient-6)"/>
            <path id="Path_81" data-name="Path 81" d="M1475.2,910.22,1442.2,877.147l37.566,15.759Z" transform="translate(-1397.043 -747.229)" fill="url(#linear-gradient-52)"/>
            <path id="Path_82" data-name="Path 82" d="M1444.181,268.761l14.842-7.946V242.628Z" transform="translate(-1398.734 -206.833)" fill="url(#linear-gradient-53)"/>
            <path id="Path_83" data-name="Path 83" d="M1544.234,260.815l16.688-15.05-16.688-3.137Z" transform="translate(-1483.945 -206.833)" fill="url(#linear-gradient-54)"/>
            <path id="Path_84" data-name="Path 84" d="M1444.181,373.174l26.417,4.119-11.575-12.065Z" transform="translate(-1398.734 -311.246)" fill="url(#linear-gradient-22)"/>
            <path id="Path_85" data-name="Path 85" d="M1544.234,278.822l11.575,12.065,5.113-27.115Z" transform="translate(-1483.945 -224.841)" fill="url(#linear-gradient-6)"/>
            <path id="Path_86" data-name="Path 86" d="M1420.226,593.932,1434.56,618.2l8.958-32.218Z" transform="translate(-1378.333 -499.251)" fill="url(#linear-gradient-6)"/>
            <path id="Path_87" data-name="Path 87" d="M1516.856,618.2l16.688-15.05-7.73-17.168Z" transform="translate(-1460.629 -499.251)" fill="url(#linear-gradient-6)"/>
            <path id="Path_88" data-name="Path 88" d="M1420.226,639.6l3.259,35.238,11.075-10.974Z" transform="translate(-1378.333 -544.915)" fill="url(#linear-gradient-59)"/>
            <path id="Path_89" data-name="Path 89" d="M1516.856,716.764l11.575,12.065,5.113-27.115Z" transform="translate(-1460.629 -597.819)" fill="url(#linear-gradient-60)"/>
            <path id="Path_90" data-name="Path 90" d="M1444.181,418.8l13.572,12.029,12.845-7.91Z" transform="translate(-1398.734 -356.87)" fill="url(#linear-gradient-61)"/>
            <path id="Path_91" data-name="Path 91" d="M1535.674,454.474l12.845-7.91-6.678,20.68" transform="translate(-1476.655 -380.517)" fill="url(#linear-gradient-62)"/>
            <path id="Path_92" data-name="Path 92" d="M1442.2,814.143l22.65,1.092-11.575-12.065Z" transform="translate(-1397.043 -684.225)" fill="url(#linear-gradient-63)"/>
            <path id="Path_93" data-name="Path 93" d="M1436.522,98.917l26.228-6.193,3.851-11Z" transform="translate(-1392.211 -69.797)" fill="url(#linear-gradient-59)"/>
            <path id="Path_94" data-name="Path 94" d="M1613.338,92.724h48.383l-44.532-11Z" transform="translate(-1542.799 -69.797)" fill="url(#linear-gradient-22)"/>
            <path id="Path_95" data-name="Path 95" d="M1436.522,162.073l15.978,6.675,10.251-12.868Z" transform="translate(-1392.211 -132.953)" fill="url(#linear-gradient-59)"/>
            <path id="Path_96" data-name="Path 96" d="M1613.338,155.88l6.437,16,41.946-16Z" transform="translate(-1542.799 -132.953)" fill="url(#linear-gradient-67)"/>
            <path id="Path_97" data-name="Path 97" d="M1544.234,168.748l16.688,3.137-6.437-16Z" transform="translate(-1483.945 -132.953)" fill="url(#linear-gradient-68)"/>
            <path id="Path_98" data-name="Path 98" d="M1913.18,263.48l44.157-10.013-22-12.853Z" transform="translate(-1798.163 -205.117)" fill="url(#linear-gradient-6)"/>
            <path id="Path_99" data-name="Path 99" d="M2084.543,253.467h48.384l-70.385-12.853Z" transform="translate(-1925.368 -205.117)" fill="url(#linear-gradient-22)"/>
            <path id="Path_100" data-name="Path 100" d="M1913.18,337.272l26.993,13.081,17.165-23.094Z" transform="translate(-1798.163 -278.909)" fill="url(#linear-gradient-6)"/>
            <path id="Path_101" data-name="Path 101" d="M2210.865,327.258l1.079,35.658,47.3-35.658Z" transform="translate(-2051.69 -278.909)" fill="url(#linear-gradient-72)"/>
            <path id="Path_102" data-name="Path 102" d="M2095.151,350.353l18.243,12.564-1.079-35.658Z" transform="translate(-1953.141 -278.909)" fill="url(#linear-gradient-63)"/>
            <path id="Path_103" data-name="Path 103" d="M1601.248,606.909l-24.005-20.931,7.73,17.168Z" transform="translate(-1512.057 -499.251)" fill="url(#linear-gradient-74)"/>
            <g id="Group_6" data-name="Group 6" transform="translate(118.923 0)">
              <path id="Path_104" data-name="Path 104" d="M1975.493,1.316,1974.376,24l-34.866.241Z" transform="translate(-1939.51 -1.316)" fill="url(#linear-gradient-6)"/>
              <path id="Path_105" data-name="Path 105" d="M2228.329,49.665,2174.56,24l1.117-22.686Z" transform="translate(-2139.693 -1.316)" fill="url(#linear-gradient-76)"/>
              <path id="Path_106" data-name="Path 106" d="M1939.51,154.494l18.25,12.569,16.616-12.811Z" transform="translate(-1939.51 -131.566)" fill="url(#linear-gradient-59)"/>
              <path id="Path_107" data-name="Path 107" d="M2062.541,167.063l70.385,12.853-53.769-25.663Z" transform="translate(-2044.291 -131.566)" fill="url(#linear-gradient-6)"/>
            </g>
            <path id="Path_108" data-name="Path 108" d="M1547.6,1030.787l2.907,23.389,14.465-13.107Z" transform="translate(-1486.811 -878.078)" fill="url(#linear-gradient-68)"/>
            <path id="Path_109" data-name="Path 109" d="M1664.712,952.9l34.849-10.283-22.383-15.357Z" transform="translate(-1586.552 -789.91)" fill="url(#linear-gradient-6)"/>
            <path id="Path_110" data-name="Path 110" d="M1781.268,929.306l-10.134,13.313-22.382-15.357Z" transform="translate(-1658.125 -789.91)" fill="#908e8f"/>
            <path id="Path_111" data-name="Path 111" d="M1699.561,1030.787l4.427,27.247-39.276-16.964Z" transform="translate(-1586.552 -878.078)" fill="url(#linear-gradient)"/>
            <path id="Path_112" data-name="Path 112" d="M1909.774,941.042l-5.706,40.559-4.427-27.247Z" transform="translate(-1786.631 -801.646)" fill="url(#linear-gradient-40)"/>
            <path id="Path_113" data-name="Path 113" d="M1178.842,1011.75l-32.744,7.189,9.994,16.7Z" transform="translate(-1144.867 -861.865)" fill="url(#linear-gradient-59)"/>
            <path id="Path_114" data-name="Path 114" d="M1265.943,1037.964l-52.47-2.323,22.75-23.89Z" transform="translate(-1202.248 -861.865)" fill="url(#linear-gradient-6)"/>
            <path id="Path_115" data-name="Path 115" d="M1967.956,791.006l25.314,12.492L1982.8,764.873Z" transform="translate(-1844.814 -651.609)" fill="url(#linear-gradient-21)"/>
            <path id="Path_116" data-name="Path 116" d="M1929.486,981.6l31.021-28.067-25.314-12.492Z" transform="translate(-1812.05 -801.646)" fill="url(#linear-gradient)"/>
            <path id="Path_117" data-name="Path 117" d="M1178.012,498.785l17.327,11L1178.1,530.08Z" transform="translate(-1172.048 -424.991)" fill="url(#linear-gradient-6)"/>
            <path id="Path_118" data-name="Path 118" d="M1814.31,482.911l-33.344,1.759L1765.4,483.7l44.888,41.041,22.27-29.256Zm-19.786,15.177v-3.295H1808.1v3.295Z" transform="translate(-1672.307 -411.473)" fill="url(#linear-gradient-11)"/>
            <path id="Path_119" data-name="Path 119" d="M1215.964,651.144l-33.008-33.073-3.246-35.238-18.615-9.887L1137.8,600.367l1.23,44.859,32.745-7.189,29.72,26.213-2.907-23.389Zm-65.135-40.828v-3.295h14.43v3.295Z" transform="translate(-1137.804 -488.152)" fill="url(#linear-gradient-11)"/>
            <path id="Path_120" data-name="Path 120" d="M1174.676,595.842l18.8,11.04-1.25-31.605Z" transform="translate(-1169.206 -490.137)" fill="url(#linear-gradient-90)"/>
            <path id="Path_121" data-name="Path 121" d="M1346.25,883.076l18.8,11.04-1.25-31.605Z" transform="translate(-1315.329 -734.763)" fill="url(#linear-gradient-91)"/>
            <path id="Path_122" data-name="Path 122" d="M1953.969,604.169l16.505,18.551a47.754,47.754,0,0,1-.674-6.5,47.051,47.051,0,0,1,.168-6.887C1964.62,607.621,1959.318,605.885,1953.969,604.169Z" transform="translate(-1832.901 -514.743)" fill="url(#linear-gradient-92)"/>
            <path id="Path_123" data-name="Path 123" d="M1928.364,501.719l22.65,10.175a47.782,47.782,0,0,1-3.273-5.653,47.066,47.066,0,0,1-2.663-6.353C1939.5,500.512,1933.947,501.1,1928.364,501.719Z" transform="translate(-1811.094 -425.932)" fill="url(#linear-gradient-93)"/>
          </g>
        </g>
      </g>
      <path id="Path_125" data-name="Path 125" d="M1806.263,770.908s-3.409,1.96-4.46,2v-7.485Z" transform="translate(-1698.451 -689.03)" fill="#b91f27"/>
      <path id="Path_126" data-name="Path 126" d="M1381.947,669v8.862l-14.761-7.953v-.928Z" transform="translate(-1328.305 -606.889)" fill="#5f181c"/>
      <path id="Path_127" data-name="Path 127" d="M1367.186,693.546V675.234l14.761,7.954L1375.1,691.8a3.232,3.232,0,0,0-3.863,1.809Z" transform="translate(-1328.305 -612.216)" fill="#b22126"/>
      <path id="Path_128" data-name="Path 128" d="M1434.678,775.064v12.271s-5.331-2.651-5.577-2.973c0,0,2.765-.942,2.059-5.175Z" transform="translate(-1381.035 -697.238)" fill="#b22126"/>
      <path id="Path_129" data-name="Path 129" d="M1367.186,827.947v6.363a51.908,51.908,0,0,0,14.761,12.115V832.373l-5.577-2.973a4.165,4.165,0,0,1-5.113-1.439Z" transform="translate(-1328.305 -742.277)" fill="#c92229"/>
      <path id="Path_130" data-name="Path 130" d="M1342.031,807.965l-.568,1.647h2.5v-1.676Z" transform="translate(-1306.397 -725.234)" fill="#090909"/>
      <rect id="Rectangle_21" data-name="Rectangle 21" width="35.715" height="1.629" transform="translate(8.337 82.731)" fill="url(#linear-gradient-94)"/>
      <path id="Path_131" data-name="Path 131" d="M1141.5,808.132c-.36.087-3.281.889-3.281.889l1.417.739-6.7,0,.019-1.633Z" transform="translate(-1128.798 -725.401)" fill="#090909"/>
      <rect id="Rectangle_22" data-name="Rectangle 22" width="35.715" height="1.629" transform="translate(117.147 47.168)" fill="url(#linear-gradient-94)"/>
      <path id="Path_132" data-name="Path 132" d="M1875.027,568.387c-.36.087-3.281.889-3.281.889l1.419.739-6.7,0,.019-1.633Z" transform="translate(-1753.52 -521.219)" fill="#090909"/>
      <path id="Path_133" data-name="Path 133" d="M1404.109,786a2.689,2.689,0,1,1-2.225-1.179,2.64,2.64,0,0,1,.871.145l1.841-2.075,1.128,1.2Z" transform="translate(-1355.565 -703.906)" fill="#090909"/>
      <path id="Path_134" data-name="Path 134" d="M1435.58,751.766l4.323-5.426,1.155,1.155-4.346,5.463Z" transform="translate(-1386.553 -672.775)" fill="url(#linear-gradient-96)"/>
      <path id="Path_135" data-name="Path 135" d="M1601.023,656.056l-15.708-10.311-.852,1.392,15.822,10.453Z" transform="translate(-1513.351 -587.102)" fill="#8a8687"/>
      <path id="Path_136" data-name="Path 136" d="M1581.856,643.3l-10.059-6.558-.739,1.619,3.579,1.988Z" transform="translate(-1501.935 -579.437)" fill="#4e4f51"/>
      <circle id="Ellipse_2" data-name="Ellipse 2" cx="2.689" cy="2.689" r="2.689" transform="translate(86.654 68.268)" fill="#090909"/>
      <path id="Path_137" data-name="Path 137" d="M1464.673,700.583l6.455-7.979.492,2-5.8,7.149Z" transform="translate(-1411.33 -627.009)" fill="#090909"/>
      <path id="Path_138" data-name="Path 138" d="M1508.124,647.821l6.334-7.813.852,1.552-6.707,8.276Z" transform="translate(-1448.336 -582.216)" fill="url(#linear-gradient-96)"/>
      <g id="Group_10" data-name="Group 10" transform="translate(90.021 47.092)">
        <path id="Path_139" data-name="Path 139" d="M1711.934,703.375l2.057-1.987,1.03,1.281-2.013,2.043Z" transform="translate(-1711.934 -681.582)" fill="#090909"/>
        <path id="Path_140" data-name="Path 140" d="M1725.739,672.308l4.729-5.075,1.063,1.241-4.755,5.111Z" transform="translate(-1723.692 -652.494)" fill="url(#linear-gradient-98)"/>
        <path id="Path_141" data-name="Path 141" d="M1757.567,624.472l7.052-7.457.336,2.03-6.338,6.68Z" transform="translate(-1750.798 -609.726)" fill="#090909"/>
        <path id="Path_142" data-name="Path 142" d="M1805.045,575.171l6.918-7.3.729,1.613-7.326,7.733Z" transform="translate(-1791.233 -567.871)" fill="url(#linear-gradient-99)"/>
      </g>
      <circle id="Ellipse_3" data-name="Ellipse 3" cx="2.689" cy="2.689" r="2.689" transform="translate(65.104 54.141)" fill="#3d3d3d"/>
      <circle id="Ellipse_4" data-name="Ellipse 4" cx="2.689" cy="2.689" r="2.689" transform="translate(151.758 45.298)" fill="#3d3d3d"/>
      <circle id="Ellipse_5" data-name="Ellipse 5" cx="2.689" cy="2.689" r="2.689" transform="translate(0 80.936)" fill="#090909"/>
      <circle id="Ellipse_6" data-name="Ellipse 6" cx="2.689" cy="2.689" r="2.689" transform="translate(108.09 45.354)" fill="#090909"/>
    </g>
    <g id="Group_15" data-name="Group 15" transform="translate(786.431 390.66)">
      <g id="Group_12" data-name="Group 12" transform="translate(137.207 0.004)">
        <path id="Path_143" data-name="Path 143" d="M1716.849,1198.252h-1.963v7.521h1.963v1.525H1711.4v-1.525h1.963v-7.521H1711.4v-1.51h5.452Z" transform="translate(-1711.397 -1196.621)"/>
        <path id="Path_144" data-name="Path 144" d="M1768.433,1207.125v-10.587l1.178.015,5.149,7.445v-7.445h1.51v10.571h-1.208l-5.1-7.385v7.385Z" transform="translate(-1759.973 -1196.447)"/>
        <path id="Path_145" data-name="Path 145" d="M1849.528,1196.742h1.631l-4.244,10.586H1845.8l-4.243-10.586h1.661l3.141,7.9Z" transform="translate(-1822.247 -1196.621)"/>
        <path id="Path_146" data-name="Path 146" d="M1928.126,1205.773h4.908v1.525h-6.448v-10.556h6.433v1.525h-4.893v2.975h4.787v1.54h-4.787Z" transform="translate(-1894.666 -1196.621)"/>
        <path id="Path_147" data-name="Path 147" d="M1996.291,1198.767a2.027,2.027,0,0,0-2.16-1.344,2.519,2.519,0,0,0-1.918.8,1.384,1.384,0,0,0-.257.982c.075,1.087,1.269,1.223,2.4,1.329,1.449.181,3.247.559,3.654,2.25a3.749,3.749,0,0,1,.076.695c0,2.039-2.024,3.217-3.927,3.217-1.631,0-3.609-.967-3.805-2.854l-.015-.287,1.54-.03.015.226v-.06c.105.982,1.3,1.5,2.28,1.5,1.133,0,2.371-.634,2.371-1.721a1.691,1.691,0,0,0-.045-.363c-.181-.8-1.268-.936-2.325-1.042-1.646-.166-3.579-.529-3.745-2.734v.015a2.862,2.862,0,0,1,.574-2.009,4.077,4.077,0,0,1,3.2-1.4,3.357,3.357,0,0,1,3.594,2.779Z" transform="translate(-1948.963 -1195.928)"/>
        <path id="Path_148" data-name="Path 148" d="M2066.054,1207.257v-9.076h-3.2v-1.54h7.913v1.54h-3.187v9.076Z" transform="translate(-2010.718 -1196.534)"/>
        <path id="Path_149" data-name="Path 149" d="M2138.007,1207.211h-1.525V1196.64h1.239l3.488,5.135,3.489-5.135h1.208v10.571h-1.51v-7.445l-2.764,4.108h-.861l-2.764-4.108Z" transform="translate(-2073.426 -1196.534)"/>
        <path id="Path_150" data-name="Path 150" d="M2221.833,1205.773h4.908v1.525h-6.448v-10.556h6.433v1.525h-4.893v2.975h4.787v1.54h-4.787Z" transform="translate(-2144.805 -1196.621)"/>
        <path id="Path_151" data-name="Path 151" d="M2284.048,1207.125v-10.587l1.178.015,5.149,7.445v-7.445h1.51v10.571h-1.208l-5.1-7.385v7.385Z" transform="translate(-2199.103 -1196.447)"/>
        <path id="Path_152" data-name="Path 152" d="M2360.371,1207.257v-9.076h-3.2v-1.54h7.913v1.54H2361.9v9.076Z" transform="translate(-2261.378 -1196.534)"/>
        <path id="Path_153" data-name="Path 153" d="M2436.75,1198.767a2.028,2.028,0,0,0-2.16-1.344,2.518,2.518,0,0,0-1.918.8,1.387,1.387,0,0,0-.257.982c.076,1.087,1.269,1.223,2.4,1.329,1.45.181,3.247.559,3.655,2.25a3.769,3.769,0,0,1,.075.695c0,2.039-2.023,3.217-3.927,3.217-1.631,0-3.609-.967-3.805-2.854l-.015-.287,1.54-.03.015.226v-.06c.106.982,1.3,1.5,2.281,1.5,1.132,0,2.371-.634,2.371-1.721a1.7,1.7,0,0,0-.045-.363c-.182-.8-1.269-.936-2.326-1.042-1.646-.166-3.579-.529-3.746-2.734v.015a2.862,2.862,0,0,1,.574-2.009,4.076,4.076,0,0,1,3.2-1.4,3.356,3.356,0,0,1,3.594,2.779Z" transform="translate(-2324.086 -1195.928)"/>
      </g>
      <g id="Group_13" data-name="Group 13">
        <path id="Path_154" data-name="Path 154" d="M786.431,1207.43v-10.586l1.178.015,5.149,7.445v-7.445h1.51v10.571h-1.208l-5.1-7.385v7.385Z" transform="translate(-786.431 -1196.704)"/>
        <path id="Path_155" data-name="Path 155" d="M861.311,1195.9a2.639,2.639,0,0,1,2.567,1.737,2.413,2.413,0,0,1-.77,3.005,2.737,2.737,0,0,1,1.646,2.628,3.024,3.024,0,0,1-3.066,3.187h-4.772V1195.9Zm-2.884,4.2h2.854c1.661,0,1.691-2.748.03-2.748h-2.884Zm0,4.878h3.262a1.69,1.69,0,0,0,0-3.368h-3.262Z" transform="translate(-846.46 -1195.9)"/>
        <path id="Path_156" data-name="Path 156" d="M929.275,1195.9l2.869,3.957,2.884-3.957h1.857l-3.821,5.3c1.133,1.556,2.809,3.851,3.821,5.255h-1.857l-2.884-3.957-2.869,3.957H927.4l3.821-5.255c-1.133-1.555-2.854-3.957-3.821-5.3Z" transform="translate(-906.491 -1195.9)"/>
      </g>
      <g id="Group_14" data-name="Group 14" transform="translate(40.536 0.094)">
        <path id="Path_157" data-name="Path 157" d="M1061.238,1198.753a5.193,5.193,0,0,1,3.723-1.6,5.039,5.039,0,0,1,5.014,3.969h-1.538a3.5,3.5,0,0,0-3.476-2.431,3.663,3.663,0,0,0-2.646,1.154,3.976,3.976,0,0,0,0,5.507,3.706,3.706,0,0,0,6.215-1.415h1.523a5.193,5.193,0,0,1-5.091,4.107,5.133,5.133,0,0,1-3.723-1.6,5.576,5.576,0,0,1,0-7.691Z" transform="translate(-1059.7 -1197.061)"/>
        <path id="Path_158" data-name="Path 158" d="M1168.85,1204.268h-3.861c-.415.985-.954,2.277-1.292,3.169h-1.677l4.323-10.906h1.138l4.323,10.906h-1.661Zm-3.276-1.461h2.677l-1.323-3.8Z" transform="translate(-1146.842 -1196.531)"/>
        <path id="Path_159" data-name="Path 159" d="M1264.442,1197.464a3.593,3.593,0,0,1,0,7.183h-2.369v3.584H1260.5v-10.767Zm0,5.645a2.04,2.04,0,0,0,0-4.077h-2.369v4.077Z" transform="translate(-1230.717 -1197.326)"/>
        <path id="Path_160" data-name="Path 160" d="M1348.676,1199.106h-2v7.66h2v1.554h-5.553v-1.554h2v-7.66h-2v-1.538h5.553Z" transform="translate(-1301.081 -1197.414)"/>
        <path id="Path_161" data-name="Path 161" d="M1416.35,1208.278v-9.368h-3.261v-1.446h8.06v1.446H1417.9v9.368Z" transform="translate(-1360.668 -1197.326)"/>
        <path id="Path_162" data-name="Path 162" d="M1506.789,1204.268h-3.861c-.416.985-.954,2.277-1.292,3.169h-1.677l4.322-10.906h1.138l4.322,10.906h-1.661Zm-3.276-1.461h2.677l-1.323-3.8Z" transform="translate(-1434.652 -1196.531)"/>
        <path id="Path_163" data-name="Path 163" d="M1600,1206.767h5.061v1.554h-6.615v-10.752H1600Z" transform="translate(-1518.526 -1197.414)"/>
      </g>
    </g>
  </g>
</svg>
