<svg xmlns="http://www.w3.org/2000/svg" width="101.37" height="117.932" viewBox="0 0 101.37 117.932">
  <g id="Group_68" data-name="Group 68" transform="translate(954.735 -2098.763)">
    <path id="Path_256" data-name="Path 256" d="M-891.127,2525.963a.849.849,0,0,0,.847.849c2.8.01,11.8.019,16.545.027a3.606,3.606,0,0,0,3.2-1.607,4.974,4.974,0,0,0,.542-1.645,4.861,4.861,0,0,0,.025-1.059q0-20.656,0-41.311v-.007a.739.739,0,0,1,.739-.739h9.9a1.957,1.957,0,0,0-.259-.467q-4.893-4.4-9.8-8.789c-1.317-1.183-2.632-2.369-3.925-3.577a.68.68,0,0,1-.151-.62c.5-.824,1.038-1.624,1.6-2.468a.326.326,0,0,1,.481-.071c.416.346.828.683,1.223,1.04q5.038,4.563,10.065,9.137c1.867,1.7,3.732,3.4,5.577,5.123a3.2,3.2,0,0,1,1.147,2.131,1.421,1.421,0,0,1-.981,1.616,11.307,11.307,0,0,1-2.823.505c-2.737.066-5.476.023-8.214.023h-.159a.746.746,0,0,0-.745.747c0,.678,0,1.331,0,1.984q.01,18.353.013,36.7a7.019,7.019,0,0,1-6.809,6.975c-6.923.089-13.847.032-20.871.027a.85.85,0,0,1-.85-.849c0-3.229,0-14.814,0-20.813a3.623,3.623,0,0,0-3.757-3.819q-5.491-.035-10.983,0a3.624,3.624,0,0,0-3.681,3.749c0,6.012,0,17.646,0,20.886a.849.849,0,0,1-.85.849c-3.193,0-14.542,0-20.452,0a7.264,7.264,0,0,1-7.109-5.677,8.941,8.941,0,0,1-.122-1.9q-.01-18.811,0-37.622v-.41a.851.851,0,0,0-.851-.85c-.614,0-1.207,0-1.8,0-2.455,0-4.911.014-7.365-.032a5.214,5.214,0,0,1-1.7-.389,1.577,1.577,0,0,1-.971-2.431,9.8,9.8,0,0,1,1.892-2.343c4.294-3.94,8.628-7.835,12.952-11.742.962-.869,1.934-1.726,2.919-2.6a.353.353,0,0,1,.53.071c.548.845,1.059,1.646,1.593,2.431.269.395-.026.542-.248.743l-6.41,5.79q-3.6,3.248-7.2,6.495c-.085.076-.158.166-.355.374h9.862a.845.845,0,0,1,.845.845v.008c0,13.912.022,27.824-.022,41.737a3.6,3.6,0,0,0,2.771,3.746,3.311,3.311,0,0,0,.839.093c4.819,0,13.916-.007,16.727-.02a.849.849,0,0,0,.846-.849c0-2.859,0-12.234,0-17.082,0-4.167,2.771-7.291,6.926-7.445,4.079-.151,8.173-.116,12.253.033a7.04,7.04,0,0,1,6.608,7.09C-891.124,2513.512-891.127,2523.071-891.127,2525.963Z" transform="translate(0 -313.821)"/>
    <path id="Path_257" data-name="Path 257" d="M-797.706,2165.089a33.118,33.118,0,0,1-33.184-33.265,33.138,33.138,0,0,1,33.668-33.057,33.111,33.111,0,0,1,32.646,33.007A33.1,33.1,0,0,1-797.706,2165.089Zm29.453-33.023a29.5,29.5,0,0,0-29.2-29.61A29.481,29.481,0,0,0-827.2,2132a29.483,29.483,0,0,0,29.761,29.394A29.5,29.5,0,0,0-768.253,2132.065Z" transform="translate(-106.293)"/>
    <path id="Path_258" data-name="Path 258" d="M-661.615,2220.011c0,1.1.014,2.179,0,3.26a2.23,2.23,0,0,1-1.869,2.378,2.236,2.236,0,0,1-2.608-2.354c-.021-1.083,0-2.168,0-3.226-1.049-.337-2.082-.583-3.043-.995a9.516,9.516,0,0,1-5.659-6.636,3.581,3.581,0,0,1-.083-1.26,1.864,1.864,0,0,1,1.12-1.681,1.933,1.933,0,0,1,2.221.465,7.656,7.656,0,0,1,1.284,2,5.767,5.767,0,0,0,4.125,3.557v-9.077c-1.053-.341-2.116-.633-3.14-1.027-2.079-.8-3.873-2.029-4.535-4.254-1-3.354-.325-6.982,3.067-9.22a13.019,13.019,0,0,1,4.642-1.822c0-1.339-.009-2.68.006-4.02a5.2,5.2,0,0,1,.128-1.188,2.134,2.134,0,0,1,2.156-1.591,2.009,2.009,0,0,1,2.069,1.67c.137,1.356.106,2.731.12,4.1.011,1.086-.013,1.112,1,1.33a9.749,9.749,0,0,1,7.246,5.922,9.32,9.32,0,0,1,.556,2.522,1.7,1.7,0,0,1-1.022,1.716,1.841,1.841,0,0,1-2.01-.111,3.912,3.912,0,0,1-1.492-2.005,6.149,6.149,0,0,0-4.24-3.913c-.013.285-.032.51-.033.735,0,2.244.028,4.489-.021,6.732a.9.9,0,0,0,.811,1.056,13.422,13.422,0,0,1,4.743,1.927c3.443,2.5,4.368,7.714,1.86,11.022a10.619,10.619,0,0,1-6.377,3.777C-660.912,2219.874-661.232,2219.932-661.615,2220.011Zm.056-12.514v8.4c2.341-.41,4.023-2,4.1-3.822C-657.366,2209.773-658.763,2208.193-661.559,2207.5Zm-4.583-5.86v-7.177a4.453,4.453,0,0,0-3.611,3.664C-669.812,2199.69-668.057,2201.414-666.142,2201.637Z" transform="translate(-240.171 -72.572)"/>
  </g>
</svg>
