<svg xmlns="http://www.w3.org/2000/svg" width="141.887" height="130.623" viewBox="0 0 141.887 130.623">
  <g id="Group_69" data-name="Group 69" transform="translate(-3401.52 -5476.334)">
    <path id="Path_259" data-name="Path 259" d="M3817.395,5689.394h.58c.945,0,1.836,0,2.747-.006a2.265,2.265,0,0,0,1.682-.569,1.483,1.483,0,0,0,.4-1.1,2.556,2.556,0,0,0-1.268-1.853,22.632,22.632,0,0,0-2.244-1.1c-.3-.135-.607-.271-.907-.411l-3.659-1.717c-7.488-3.515-15.231-7.149-22.839-10.738a1.553,1.553,0,0,1-.442-.3,8.326,8.326,0,0,1-.035-1.406l1.017,0c1.381,0,2.684-.008,3.991.012a1.844,1.844,0,0,0,1.393-.469,1.8,1.8,0,0,0,.459-1.376c-.032-1.586-.032-2.98,0-4.261a1.868,1.868,0,0,0-.464-1.437,1.845,1.845,0,0,0-1.433-.472c-2.1.041-3.955.041-5.657,0a1.738,1.738,0,0,0-2.02,2.008c.049,2.25.046,4.592-.01,7.162a.879.879,0,0,1-.184.419c-5.973,2.839-12.06,5.7-17.947,8.46l-4.141,1.944-1.644.77c-2.044.956-4.158,1.944-6.216,2.969a2.144,2.144,0,0,0-1.156,2.037c.152.54.666.967,1.619,1.345a2.541,2.541,0,0,0,1.144.108c.1-.006.2-.014.3-.014h0c.791,0,1.581,0,2.355,0h.375c1.219,3.384,2.473,4.521,5.968,5.39v2.4c0,5.552,0,11.292-.029,16.923a.769.769,0,0,1-.219.188,7.241,7.241,0,0,0-4.454,5.623c-.055.327-.121.4-.5.579a8.048,8.048,0,0,0-4.771,6.285,1.9,1.9,0,0,0,2.275,2.693h57.988a2.13,2.13,0,0,0,1.706-.489,2.1,2.1,0,0,0,.3-1.707,8.262,8.262,0,0,0-4.956-6.9.877.877,0,0,1-.314-.457,7.332,7.332,0,0,0-4.272-5.5c-.37-.166-.384-.218-.383-.575.016-4.552.012-9.18.008-13.654q0-2.517,0-5.033c0-.12,0-.24.011-.37A7.006,7.006,0,0,0,3817.395,5689.394Zm-25.882-22.033v-2.42h4v2.42Zm25.287,19.277h-53.492c8.639-4.063,17.527-8.242,26.355-12.357a1.117,1.117,0,0,1,.74-.028c8.43,3.931,16.989,7.958,25.264,11.852Zm1.783,40.041h-56.607a4.568,4.568,0,0,1,.9-2.007,5.508,5.508,0,0,1,3.621-2.184,9.171,9.171,0,0,1,1.185-.062q22.485,0,44.97.015c2.946,0,5.015,1.365,5.825,3.839h0A4.027,4.027,0,0,1,3818.583,5726.679Zm-51.248-7.016a4.408,4.408,0,0,1,3.79-3.139,16.725,16.725,0,0,1,1.757-.044c.176,0,.352,0,.528,0q17.544.013,35.089.032a4.637,4.637,0,0,1,4.762,3.148Zm47.055-30.147a4.09,4.09,0,0,1-4.13,2.576q-11.476.006-22.952,0h-8.4q-1.329,0-2.659,0c-2.083,0-4.237.009-6.352-.012a4.071,4.071,0,0,1-3.746-2.571Zm-20.655,24.153V5694.95h4.167v18.719Zm-2.926-18.739v18.755h-.9V5694.93Zm-3.82-.032v18.768h-4.175V5694.9Zm-10.85.008V5713.7h-4.153v-18.791Zm3.8.023V5713.7h-.947v-18.767Zm20.8,18.8v-18.784h1.051l-.006,18.174c0,.228,0,.461-.009.621-.164.008-.4.006-.624,0C3801.02,5713.743,3800.885,5713.738,3800.74,5713.73Zm8.021-18.833v18.793H3804.6V5694.9Z" transform="translate(-279.399 -145.917)"/>
    <path id="Path_260" data-name="Path 260" d="M3508.5,5780.529a3.464,3.464,0,0,0,1.068-2.469,3.389,3.389,0,0,0-1.153-2.369c-.707-.673-1.443-1.331-2.155-1.967l-.641-.574-5.356-4.813q-11.609-10.436-23.224-20.864c-1.908-1.713-3.4-1.706-5.3.024-3.829,3.473-7.736,6.988-11.516,10.389q0-.584.005-1.168c.005-1.036.011-2.105-.013-3.163a3.12,3.12,0,0,0-3.077-3.165h-.022a3.17,3.17,0,0,0-3.086,3.147c-.013.241-.012.475-.01.7v.2q0,1.087.006,2.174c.007,2.064.015,4.2-.021,6.294a1.372,1.372,0,0,1-.312.831l-1.645,1.5c-3.457,3.158-7.03,6.423-10.637,9.519-1.424,1.221-2.089,2.312-2.094,3.429-.005,1.414,1.068,2.541,2.119,3.457.025.022.048.046.072.069.059.058.118.114.182.167a3.528,3.528,0,0,0,4.675.035c.31-.247.594-.513.869-.769.17-.16.34-.318.515-.471.614-.536,1.231-1.069,1.9-1.645v5.507c0,6.506,0,13.232-.01,19.848a2.171,2.171,0,0,0,.48,1.625,1.747,1.747,0,0,0,1.293.452h.042c1.213-.016,2.449-.016,3.644-.017,1.445,0,2.94,0,4.413-.028a1.772,1.772,0,0,0,1.108-.542,2.7,2.7,0,0,1,.224-.18l.976-.656-1-.611a2.654,2.654,0,0,1-.217-.157,1.823,1.823,0,0,0-1.053-.477c-1.2-.039-2.421-.034-3.6-.028q-.628,0-1.258,0h-2.314V5801.3c0-7.992-.007-16.257.026-24.383a1.28,1.28,0,0,1,.41-.66c3.368-3.011,6.81-6.055,10.139-9l2.944-2.6,2.571-2.279c1.683-1.492,3.423-3.036,5.14-4.545.788-.693.788-.694,1.61,0,.144.122.285.247.425.372l4.33,3.829c5.236,4.631,10.651,9.42,15.992,14.112a1.327,1.327,0,0,1,.524,1.171c-.018,6.345-.017,12.8-.017,19.034q0,3.477,0,6.953c0,.148-.006.3-.014.458l-1.213,0c-1.962,0-3.817-.009-5.7.033a1.4,1.4,0,0,0-.273.033,1.3,1.3,0,0,0-1.016,1.41,1.28,1.28,0,0,0,1.231,1.186h.027c1.958.038,3.946.035,5.869.032H3497c.816,0,1.365.006,1.772-.394s.409-.958.409-1.728q0-9.385-.008-18.77l0-6.552.181.16c1.01.893,1.931,1.707,2.851,2.523a3.565,3.565,0,0,0,5.3-.161l.089-.088C3507.888,5781.15,3508.2,5780.844,3508.5,5780.529Zm-51-27.011.014.3a39.218,39.218,0,0,1-.041,6.358c-.027.229-.4.593-.756.907q0-.561,0-1.123c0-2.124-.006-4.32.012-6.478a.445.445,0,0,1,.114-.338.1.1,0,0,1,.075-.023.345.345,0,0,1,.067.008A1.248,1.248,0,0,1,3457.5,5753.518Zm48.692,25.509c-.1.1-.207.2-.311.3-.075.072-.151.144-.225.217-.749.729-1.015.68-1.677.1q-5.444-4.792-10.88-9.6-2.928-2.585-5.858-5.171l-1.852-1.633c-2.874-2.538-5.846-5.162-8.794-7.715a4.826,4.826,0,0,0-1.33-.739c-.206-.086-.417-.176-.625-.28l-.368-.182-.352.211c-.2.121-.415.235-.621.347a7.36,7.36,0,0,0-1.4.9c-3.418,3-6.877,6.06-10.222,9.023l-3.773,3.34q-6.508,5.758-13.024,11.51c-.689.608-1.007.6-1.7-.062-.218-.207-.429-.422-.662-.661-.516-.53-.567-.745-.565-.812s.067-.279.618-.775q6.472-5.82,12.946-11.637,6.854-6.162,13.707-12.323,1.662-1.493,3.312-3l1.14-1.038c.341-.31.548-.455.742-.455s.376.142.668.4q15.55,14,31.094,28.011c.607.548.676.762.678.828s-.06.29-.665.889Z" transform="translate(-29.677 -211.886)"/>
    <path id="Path_261" data-name="Path 261" d="M3487.719,5538.351a1.193,1.193,0,0,0,.077.392h0a1.277,1.277,0,0,0,1.214.828h.01a1.281,1.281,0,0,0,1.216-.851,1.248,1.248,0,0,0,.073-.375c.032-.936.027-1.881.022-2.795,0-.6-.006-1.227,0-1.836a5.037,5.037,0,0,1,5.16-5.3c3.667-.045,7.4-.028,11.007-.011l2.183.009a4.6,4.6,0,0,1,.754.087,29.1,29.1,0,0,0-1.281,9.561c.036,2,.394,2.346,2.393,2.346h10.663q18.661,0,37.322,0h.005c.263,0,.5,0,.714,0,.164,0,.317,0,.46,0,.867,0,1.388-.052,1.778-.448.445-.452.43-1.067.405-2.087-.006-.255-.014-.548-.016-.883-.08-11.338-5.315-19.629-15.56-24.644a25.862,25.862,0,0,0-20.094-1.087,26.623,26.623,0,0,0-15.17,13.394c-.543,1.1-.755,1.309-1.967,1.2-.275-.024-9.5-.113-13.687-.086a7.718,7.718,0,0,0-7.651,7.147c-.116,1.73-.076,3.482-.038,5.175Zm66.941-14.224c-.5-.748-.41-.823-.019-1.134l.015-.012a.237.237,0,0,1,.179-.049.193.193,0,0,1,.133.082,23.433,23.433,0,0,1,4.193,14.56h-.643q-.041-.508-.078-1.01c-.092-1.221-.187-2.483-.368-3.714A20.918,20.918,0,0,0,3554.66,5524.127Zm-2.111-2.845a23.724,23.724,0,0,0-16.109-7.837v-.894c4.64-.418,13.346,3.83,16.65,8.144Zm-16.208-3.561,0-.022a10.08,10.08,0,0,0,.044-1.493c4.457-.163,11.634,3.433,14.279,7.187a14.308,14.308,0,0,0-1.25,1.183,1.161,1.161,0,0,0-.26.5,1.347,1.347,0,0,0,1.583,1.639,1.094,1.094,0,0,0,.536-.278,9.988,9.988,0,0,0,.929-1.069,20.654,20.654,0,0,1,3.488,12.245h-41.332a20.4,20.4,0,0,1,3.1-11.7,2.668,2.668,0,0,0,.5.377,1.666,1.666,0,0,0,.331.14,1.342,1.342,0,0,0,1.383-.36,1.291,1.291,0,0,0,.277-1.346,1.325,1.325,0,0,0-.184-.341,3.689,3.689,0,0,0-.677-.667c2.663-3.9,9.655-7.5,14.552-7.5a8.534,8.534,0,0,0,.052,1.464h0a1.515,1.515,0,0,0,.06.254,1.336,1.336,0,0,0,1.4.911A1.284,1.284,0,0,0,3536.341,5517.721Zm-2.721-5.181v.878a23.774,23.774,0,0,0-16.61,8.5c-.184-.233-.382-.472-.566-.682A24.18,24.18,0,0,1,3533.62,5512.541Zm-18.222,11.3a5.132,5.132,0,0,1-.569,1.144l-.022.038a22.852,22.852,0,0,0-3.165,11.7c0,.29,0,.58,0,.881h-.786a24.473,24.473,0,0,1,4.068-14.273A2.276,2.276,0,0,1,3515.4,5523.839Z" transform="translate(-67.646 -26.228)"/>
    <path id="Path_262" data-name="Path 262" d="M3550.8,5859.684c.369-1.639-.49-3.117-2.367-4.062-.32-.161-.63-.358-.959-.567l-.364-.229-2.727-1.683q-5.7-3.521-11.4-7.05a2.651,2.651,0,0,0-2.982-.233q-2.154,1.332-4.31,2.66c-4.063,2.5-8.264,5.093-12.359,7.7a4.149,4.149,0,0,0-1.363,2.268c-.031.089-.06.179-.09.264a2.993,2.993,0,0,0-.043,1.428c.017.125.035.249.045.369.983,12.419,7.011,21.588,17.915,27.252a3.4,3.4,0,0,0,1.567.421,2.755,2.755,0,0,0,1.52-.467c.65-.421,1.328-.836,1.984-1.238a37.922,37.922,0,0,0,4.766-3.26C3546.545,5877.414,3550.2,5869.7,3550.8,5859.684Zm-36.149-.86c.236-.476.957-.918,2.267-1.723l.469-.288c4.4-2.7,8.955-5.5,13.412-8.285a.991.991,0,0,1,.512-.2,1.017,1.017,0,0,1,.523.2c5.069,3.166,10.31,6.438,15.62,9.637.659.4.664.793.612,1.729-.005.1-.011.194-.015.292-.865,11.261-6.21,19.65-15.887,24.934a1.5,1.5,0,0,1-1.672.019c-9.3-5.027-14.617-12.917-15.818-23.449C3514.5,5860.135,3514.413,5859.3,3514.649,5858.824Z" transform="translate(-86.561 -289.848)"/>
    <path id="Path_263" data-name="Path 263" d="M3590.062,5707.462a1.6,1.6,0,0,0,.72.145c.073,0,.142,0,.2-.005s.1,0,.145,0h2.625c15,0,30.518,0,45.776-.022a1.4,1.4,0,0,0,.249-.022,1.293,1.293,0,0,0,1.074-1.4,1.28,1.28,0,0,0-1.254-1.215h-.027c-6.755-.028-13.623-.027-20.265-.026l-6.969.006h-20.847c-.079,0-.165,0-.247-.005a3.3,3.3,0,0,0-1.021.08,1.5,1.5,0,0,0-1.082,1.213A1.52,1.52,0,0,0,3590.062,5707.462Z" transform="translate(-147.315 -179.47)"/>
    <path id="Path_264" data-name="Path 264" d="M3523.672,5516.422h.024a8.568,8.568,0,0,0-.019-17.135h-.027a8.567,8.567,0,1,0,.022,17.135Zm-.064-14.465h.053a5.881,5.881,0,1,1-.092,11.761h-.031a5.874,5.874,0,0,1-5.8-5.932,5.942,5.942,0,0,1,5.873-5.83Z" transform="translate(-89.155 -18.022)"/>
    <path id="Path_265" data-name="Path 265" d="M3598.383,5678.059l6.331,0,4.279,0c2.716,0,5.461,0,8.176-.023a1.361,1.361,0,0,0,.211-.019,1.284,1.284,0,0,0,1.063-1.228,1.324,1.324,0,0,0-.989-1.353,1.518,1.518,0,0,0-.24-.042,17.625,17.625,0,0,0-1.993-.04c-.252,0-.505.009-.758.009h-5.321c-10.638,0-21.637,0-32.459.026a1.526,1.526,0,0,0-.209.016,1.315,1.315,0,0,0,.019,2.6,1.768,1.768,0,0,0,.209.014c5.435.028,10.961.026,16.3.024h3.015v.012Z" transform="translate(-136.505 -156.262)"/>
    <path id="Path_266" data-name="Path 266" d="M3534.922,5693.156h.007a3.906,3.906,0,0,0,3.888-3.864,3.958,3.958,0,0,0-3.781-3.885,3.836,3.836,0,0,0-2.771,1.124,3.966,3.966,0,0,0-1.182,2.823A3.89,3.89,0,0,0,3534.922,5693.156Zm.074-2.728a1.085,1.085,0,0,1-1.219-1.057,1.19,1.19,0,0,1,.3-.889,1.145,1.145,0,0,1,.834-.344h.016a1.145,1.145,0,1,1,.068,2.29Z" transform="translate(-101.729 -164.157)"/>
    <path id="Path_267" data-name="Path 267" d="M3495.964,5654.16a3.806,3.806,0,0,0-1.2,2.7,3.952,3.952,0,0,0,3.739,3.922c.054,0,.108,0,.162,0a3.86,3.86,0,0,0,3.818-3.676,3.9,3.9,0,0,0-1.034-2.83,3.8,3.8,0,0,0-2.685-1.2A3.86,3.86,0,0,0,3495.964,5654.16Zm2.656,1.583h.015a1.286,1.286,0,0,1,1.184,1.141,1.251,1.251,0,0,1-1.134,1.207,1.155,1.155,0,0,1-.833-.326,1.188,1.188,0,0,1-.385-.844A1.238,1.238,0,0,1,3498.62,5655.742Z" transform="translate(-73.211 -138.774)"/>
    <path id="Path_268" data-name="Path 268" d="M3499.261,5670.8h0a1.086,1.086,0,0,0,.393.074,1.983,1.983,0,0,0,1.271-.662c2.777-2.724,5.565-5.526,8.261-8.236l2.047-2.057a2.853,2.853,0,0,0,.255-.3,1.378,1.378,0,0,0-.12-1.825.808.808,0,0,0-.812-.213,3.048,3.048,0,0,0-1.3.663c-3.785,3.745-7.1,7.06-10.13,10.133a2.3,2.3,0,0,0-.584,1.141A1.162,1.162,0,0,0,3499.261,5670.8Z" transform="translate(-76.168 -142.289)"/>
    <path id="Path_269" data-name="Path 269" d="M3794.494,5675.521a1.241,1.241,0,0,0-.408-.081c-2.315-.051-4.677-.053-7.221-.006a1.159,1.159,0,0,0-.209.022,1.263,1.263,0,0,0-1.025,1.184,1.348,1.348,0,0,0,.928,1.367,1.294,1.294,0,0,0,.318.061c.881.054,1.767.044,2.622.036l.213,0v.011h.752c.324,0,.649,0,.973.007s.652.007.983.007c.54,0,1.085-.009,1.63-.04a1.489,1.489,0,0,0,.389-.078,1.316,1.316,0,0,0,.893-1.244A1.288,1.288,0,0,0,3794.494,5675.521Z" transform="translate(-301.592 -156.301)"/>
    <path id="Path_270" data-name="Path 270" d="M3830.426,6036.325h0a1.4,1.4,0,0,0-.406.106c-.671.294-1.324.631-1.955.957-.432.223-.88.454-1.32.664-.409.195-.84.38-1.256.56-.519.223-1.056.455-1.58.715a1.789,1.789,0,0,0-.893,1.28,1.128,1.128,0,0,0,.438.961,1.362,1.362,0,0,0,.924.36,1.333,1.333,0,0,0,.37-.052,3.226,3.226,0,0,0,.525-.184l1.067-.505c1.618-.766,3.291-1.557,4.917-2.386a1.175,1.175,0,0,0,.341-.266,1.3,1.3,0,0,0,.177-1.479A1.343,1.343,0,0,0,3830.426,6036.325Z" transform="translate(-330.939 -439.683)"/>
    <path id="Path_271" data-name="Path 271" d="M3890.978,5996.377a2.485,2.485,0,0,0-1.332.453c-2.067,1.6-3.641,2.864-5.1,4.085a1.4,1.4,0,0,0-.28.322,1.358,1.358,0,0,0,.027,1.49,1.317,1.317,0,0,0,1.1.593,1.387,1.387,0,0,0,.248-.023,1.173,1.173,0,0,0,.5-.217c1.739-1.32,3.459-2.715,5.123-4.065l.244-.2a1.633,1.633,0,0,0,.348-.405,1.436,1.436,0,0,0-.085-1.663A.881.881,0,0,0,3890.978,5996.377Z" transform="translate(-378.872 -408.321)"/>
    <path id="Path_272" data-name="Path 272" d="M3766.172,6061.586a1.212,1.212,0,0,0-.55-.021c-2.308.464-4.6.968-6.822,1.5a1.679,1.679,0,0,0-1.11,1.366,1.035,1.035,0,0,0,.452.909,1.859,1.859,0,0,0,1.16.4,1.894,1.894,0,0,0,.424-.048l1.1-.258c1.89-.44,3.676-.857,5.484-1.319a1.06,1.06,0,0,0,.532-.337,1.354,1.354,0,0,0-.673-2.193Z" transform="translate(-279.651 -459.489)"/>
    <path id="Path_273" data-name="Path 273" d="M3931.647,5576.6c.585.749,1.207,1.477,1.809,2.181.363.424.726.849,1.082,1.279.187.226.362.464.547.715.242.329.492.668.777.99a1.741,1.741,0,0,0,1.262.5h.052a.922.922,0,0,0,.633-.292,1.426,1.426,0,0,0,.2-1.712,4.613,4.613,0,0,0-.414-.625l-.444-.546c-1.141-1.4-2.32-2.852-3.533-4.239a1.146,1.146,0,0,0-.158-.151,1.255,1.255,0,0,0-1.614.015,1.324,1.324,0,0,0-.353,1.644A1.512,1.512,0,0,0,3931.647,5576.6Z" transform="translate(-416.005 -77.007)"/>
    <path id="Path_274" data-name="Path 274" d="M3998.189,5699.937a1.183,1.183,0,0,0,.157.355,1.372,1.372,0,0,0,1.06.618c.034,0,.068,0,.1,0a1.459,1.459,0,0,0,1.093-.495l.021-.025a1.268,1.268,0,0,0,.261-1.122l-.325-1.319c-.459-1.869-.892-3.635-1.369-5.414a1.061,1.061,0,0,0-.338-.526,1.355,1.355,0,0,0-2.192.668,1.185,1.185,0,0,0-.021.555C3997.113,5695.466,3997.634,5697.721,3998.189,5699.937Z" transform="translate(-467.253 -169.085)"/>
    <path id="Path_275" data-name="Path 275" d="M3973.273,5636.011l.028.05a1.3,1.3,0,0,0,1.135.655,1.412,1.412,0,0,0,.433-.07,1.3,1.3,0,0,0,.9-1.388,1.225,1.225,0,0,0-.1-.365c-.873-1.887-1.828-3.769-2.751-5.587l-.148-.293a2.474,2.474,0,0,0-.381-.532,1.341,1.341,0,0,0-1.87-.135.925.925,0,0,0-.331.6,2.45,2.45,0,0,0,.211,1.29C3971.3,5632.1,3972.27,5634.086,3973.273,5636.011Z" transform="translate(-446.492 -119.107)"/>
    <path id="Path_276" data-name="Path 276" d="M3879.406,5530.738h0c1.654,1.325,3.456,2.723,5.669,4.4a1.4,1.4,0,0,0,.842.254,1.587,1.587,0,0,0,.547-.093,1.074,1.074,0,0,0,.542-.489,1.36,1.36,0,0,0-.092-1.541.994.994,0,0,0-.168-.164l-.057-.045c-1.892-1.468-3.85-2.985-5.8-4.442a1.022,1.022,0,0,0-.548-.194,1.272,1.272,0,0,0-1.164.581,1.336,1.336,0,0,0-.077,1.343A1.2,1.2,0,0,0,3879.406,5530.738Z" transform="translate(-374.866 -40.899)"/>
    <path id="Path_277" data-name="Path 277" d="M3631.834,6061.042h0c-2.276-.593-4.6-1.158-6.9-1.678a1.085,1.085,0,0,0-.574.03,1.376,1.376,0,0,0-.691,2.108.979.979,0,0,0,.534.383c1.867.522,3.707,1,5.655,1.5l1.9.493.3-.288a2.465,2.465,0,0,1,.194-.159,1.326,1.326,0,0,0,.653-.992A1.582,1.582,0,0,0,3631.834,6061.042Z" transform="translate(-174.223 -457.759)"/>
    <path id="Path_278" data-name="Path 278" d="M3819.326,5498.982h0c2.057.979,4.165,1.936,6.265,2.845a1.116,1.116,0,0,0,.384.089l.072,0a1.289,1.289,0,0,0,1.148-.718,1.3,1.3,0,0,0-.155-1.424,1.117,1.117,0,0,0-.338-.274c-1.455-.761-2.928-1.45-4.175-2.025-.57-.263-1.144-.493-1.751-.735l-.543-.217a1.352,1.352,0,0,0-1.3.16.96.96,0,0,0-.484,1.048A1.942,1.942,0,0,0,3819.326,5498.982Z" transform="translate(-327.333 -15.776)"/>
    <path id="Path_279" data-name="Path 279" d="M3698.914,6071.729h0a1.266,1.266,0,0,0-.376-.082c-.825-.048-1.654-.041-2.456-.032-.3,0-.6.006-.9.006h-.15l-.59-.02c-.777-.028-1.951-.068-2.685-.062a1.6,1.6,0,0,0-.963.418,1.162,1.162,0,0,0-.094,1.725,1.494,1.494,0,0,0,.988.526c1.729.058,3.479.087,5.222.087q.824,0,1.646-.009a1.12,1.12,0,0,0,.426-.091,1.306,1.306,0,0,0,.786-1.241A1.327,1.327,0,0,0,3698.914,6071.729Z" transform="translate(-226.791 -467.338)"/>
    <path id="Path_280" data-name="Path 280" d="M3754.014,5481.225a1.17,1.17,0,0,0,.5.257h0c2.155.476,4.452.939,6.825,1.376a1.019,1.019,0,0,0,.185.017,1.146,1.146,0,0,0,.384-.069,1.347,1.347,0,0,0,.565-2.135,1,1,0,0,0-.534-.336c-1.839-.433-3.652-.825-5.571-1.24l-1.3-.282a1.2,1.2,0,0,0-1.013.247l-.016.014a1.433,1.433,0,0,0-.511,1.091A1.374,1.374,0,0,0,3754.014,5481.225Z" transform="translate(-276.388 -1.926)"/>
    <path id="Path_281" data-name="Path 281" d="M3413.51,5828.122c-.111-.293-.207-.547-.281-.795h0q-.274-.911-.541-1.825c-.37-1.254-.752-2.552-1.159-3.826a1.158,1.158,0,0,0-.18-.341,1.324,1.324,0,0,0-2.344.583,1.051,1.051,0,0,0,.023.462c.591,2.067,1.26,4.25,2.044,6.674a1.677,1.677,0,0,0,1.245,1.027.786.786,0,0,0,.137.011.989.989,0,0,0,.638-.25,1.506,1.506,0,0,0,.429-1.692Z" transform="translate(-5.864 -270.487)"/>
    <path id="Path_282" data-name="Path 282" d="M3619.6,5485.927h0l.078,0a1.025,1.025,0,0,0,.148-.011,5.232,5.232,0,0,0,.964-.252c.159-.054.309-.1.454-.142q.847-.218,1.7-.433c1.21-.307,2.46-.624,3.684-.967a1.193,1.193,0,0,0,.342-.158,1.38,1.38,0,0,0,.611-1.047,1.465,1.465,0,0,0-.462-1.186l-.461-.427-1.872.527c-1.937.544-3.768,1.058-5.618,1.615a1,1,0,0,0-.589.507,1.379,1.379,0,0,0,0,1.314A1.262,1.262,0,0,0,3619.6,5485.927Z" transform="translate(-170.297 -3.904)"/>
    <path id="Path_283" data-name="Path 283" d="M3404.368,5761.625a1.337,1.337,0,0,0,.029-.277c0-1.019-.207-5.181-.273-6.548l-.006-.115a1.206,1.206,0,0,0-.077-.365,1.275,1.275,0,0,0-1.081-.822,1.314,1.314,0,0,0-1.255.62,1.164,1.164,0,0,0-.185.639c.049,2.237.15,4.514.3,6.768a1.137,1.137,0,0,0,.109.408,1.251,1.251,0,0,0,1.146.72,1.393,1.393,0,0,0,.161-.009A1.306,1.306,0,0,0,3404.368,5761.625Z" transform="translate(0 -217.616)"/>
    <path id="Path_284" data-name="Path 284" d="M3419.809,5629.637a1.368,1.368,0,0,0,.318.038,1.27,1.27,0,0,0,1.108-.635,1.377,1.377,0,0,0,.084-.17c1.074-2.606,1.875-4.6,2.6-6.479a1.113,1.113,0,0,0,.06-.542,1.3,1.3,0,0,0-1.97-.943,1.019,1.019,0,0,0-.417.472c-.95,2.252-1.854,4.5-2.686,6.673a1.033,1.033,0,0,0-.066.428A1.256,1.256,0,0,0,3419.809,5629.637Z" transform="translate(-13.594 -113.364)"/>
    <path id="Path_285" data-name="Path 285" d="M3404.063,5694.36a1.2,1.2,0,0,0,.874.391h.012a1.2,1.2,0,0,0,.867-.372,1.592,1.592,0,0,0,.452-.794c.412-2.216.8-4.5,1.143-6.782a1.062,1.062,0,0,0-.02-.4,1.256,1.256,0,0,0-.869-.917,1.356,1.356,0,0,0-1.31.3,1.128,1.128,0,0,0-.361.61c-.353,1.764-.665,3.509-1,5.356l-.211,1.177a1.686,1.686,0,0,0,.409,1.424Z" transform="translate(-1.649 -164.173)"/>
    <path id="Path_286" data-name="Path 286" d="M3449.081,5571.559l.046.022a1.021,1.021,0,0,0,1.072-.114l.045-.035a2.164,2.164,0,0,0,.449-.432l.294-.4c1.228-1.679,2.5-3.415,3.714-5.153a1.213,1.213,0,0,0,.163-.339,1.283,1.283,0,0,0-1.883-1.464,1.3,1.3,0,0,0-.174.127,7.828,7.828,0,0,0-1.155,1.342c-.965,1.342-2,2.791-3.01,4.292a2.124,2.124,0,0,0-.238,1.348A1,1,0,0,0,3449.081,5571.559Z" transform="translate(-36.8 -68.408)"/>
    <path id="Path_287" data-name="Path 287" d="M3686.8,5479.068a1.277,1.277,0,0,0,.386.062h0c.825,0,1.654-.072,2.32-.126l.6-.047c.4,0,.775,0,1.134.006.957.008,1.782.015,2.626-.036a1.256,1.256,0,0,0,.575-.187,1.316,1.316,0,0,0,.625-1.26,1.262,1.262,0,0,0-.84-1.078,1.143,1.143,0,0,0-.383-.067h-.01c-2.349.021-4.631.085-6.784.192a1.159,1.159,0,0,0-.4.1,1.283,1.283,0,0,0-.757,1.259A1.3,1.3,0,0,0,3686.8,5479.068Z" transform="translate(-223.285)"/>
    <path id="Path_288" data-name="Path 288" d="M3517.631,5623.665a1.182,1.182,0,0,0-.323-.668,1.27,1.27,0,0,0-1.751-.131,1.2,1.2,0,0,0-.495.845,33.939,33.939,0,0,0,.008,3.489,1.295,1.295,0,0,0,2.21.754,1.281,1.281,0,0,0,.365-.7,7.785,7.785,0,0,0,.037-1.256c0-.147-.007-.294-.007-.442l.014-.751h-.018A8.9,8.9,0,0,0,3517.631,5623.665Z" transform="translate(-89.118 -114.825)"/>
    <path id="Path_289" data-name="Path 289" d="M3642.3,5584.157a2.608,2.608,0,0,0,1.305,3.375c.726.4,1.471.793,2.192,1.169q.379.2.759.4,1.282.674,2.561,1.356c2.018,1.073,4.1,2.183,6.188,3.223a4.059,4.059,0,0,0,1.814.435,3.838,3.838,0,0,0,.981-7.535c-4.553-1.451-9.066-2.845-12.49-3.9A2.583,2.583,0,0,0,3642.3,5584.157Zm15.435,7.061a1.371,1.371,0,0,1-1.351-.012c-2.232-1.15-4.491-2.345-6.675-3.5q-1.354-.717-2.709-1.432c-.195-.1-.393-.2-.591-.3-.352-.174-.688-.341-1-.529,3.994,1.226,7.948,2.479,11.981,3.762.462.147.776.4.809,1.177A.958.958,0,0,1,3657.737,5591.218Z" transform="translate(-188.892 -83.385)"/>
    <path id="Path_290" data-name="Path 290" d="M3584.25,5919.994c-2.191,2.445-4.372,4.809-6.481,7.025a2.908,2.908,0,0,1-2.116.961,3.056,3.056,0,0,1-2.1-.892c-1.138-1.074-2.29-2.222-3.519-3.509a2.929,2.929,0,0,1,.02-4.133,2.877,2.877,0,0,1,4.122-.1,16.179,16.179,0,0,1,1.274,1.379c.017.019.035.04.052.062l.76-.844c1.1-1.222,2.142-2.377,3.209-3.5a4.257,4.257,0,0,1,1.813-1.192h0a2.734,2.734,0,0,1,3.16,1.252A2.8,2.8,0,0,1,3584.25,5919.994Z" transform="translate(-131.653 -344.538)"/>
  </g>
</svg>
