<svg xmlns="http://www.w3.org/2000/svg" width="114.765" height="125.82" viewBox="0 0 114.765 125.82">
  <g id="Group_639" data-name="Group 639" transform="translate(4568.91 1926.869)">
    <path id="Path_374" data-name="Path 374" d="M-4565.666-1804.245h84.672v-40.823h3.163v44.02h-91.08v-125.82h1.683q32.291,0,64.583.029a3.493,3.493,0,0,1,2.129.7c7.281,6.321,14.5,12.711,21.77,19.046a2.79,2.79,0,0,1,1.065,2.435c-.073,1.974-.021,3.953-.021,6.014h-3.224c0-1.569.077-3.188-.037-4.794a3.029,3.029,0,0,0-.807-1.9q-9.914-8.82-19.935-17.519a3.044,3.044,0,0,0-1.826-.716q-30.5-.053-61-.024c-.343,0-.686.04-1.132.068Z" transform="translate(0 0)"/>
    <path id="Path_375" data-name="Path 375" d="M-4333.143-1881.02l2.767,1.635-2.872,5.084a7.241,7.241,0,0,1,1.822,6.836,3.273,3.273,0,0,1-.46,1.245c-1.161,1.386-.9,2.71-.163,4.209,1,2.047,1.825,4.183,2.664,6.3a1.787,1.787,0,0,1,.006,1.351c-4.77,8.364-9.579,16.7-14.465,25.2l-2.813-1.608c2.158-3.763,4.248-7.415,6.345-11.062,2.353-4.089,4.692-8.184,7.087-12.248a2.056,2.056,0,0,0,.139-2.192c-.654-1.331-1.187-2.721-1.866-4.306-.336.474-.6.789-.8,1.141q-17.127,29.752-34.244,59.511c-1.09,1.894-2.236,3.759-3.241,5.7a18.167,18.167,0,0,1-4.8,5.774c-3.926,3.2-7.728,6.56-11.585,9.849-.33.282-.686.533-1.285.995.588-3.3,1.113-6.307,1.659-9.31.435-2.393,1.012-4.767,1.307-7.177a18.749,18.749,0,0,1,2.629-7.186q20.451-35.4,40.8-70.865a7.25,7.25,0,0,1,7.663-3.976,1.589,1.589,0,0,0,1.216-.649C-4334.774-1878.1-4334.024-1879.494-4333.143-1881.02Zm-18.438,27.688-21.239,36.931,6.436,3.683,21.233-36.91Zm-34.534,67.456c2.537-2.16,4.767-4.047,6.98-5.953a7,7,0,0,0,1.583-1.551c3.184-5.436,6.31-10.905,9.525-16.489l-6.426-3.71c-2.435,4.23-4.813,8.348-7.173,12.476-.885,1.548-2.07,3.032-2.506,4.7C-4384.992-1793.1-4385.425-1789.686-4386.115-1785.876Zm36.167-70.281,6.436,3.693c2.948-5.131,5.85-10.092,8.654-15.108a3.6,3.6,0,0,0-1.476-4.886,3.652,3.652,0,0,0-5.108,1.539C-4344.269-1866.083-4347.04-1861.215-4349.948-1856.157Z" transform="translate(-124.897 -32.171)"/>
    <path id="Path_376" data-name="Path 376" d="M-4461.075-1786.4v3.083h-66.513v-3.083Z" transform="translate(-28.995 -98.563)"/>
    <path id="Path_377" data-name="Path 377" d="M-4509.233-1630.215a12.116,12.116,0,0,1-12.073,12.042,12.227,12.227,0,0,1-12.142-12.311,12.238,12.238,0,0,1,12.189-11.972A12.129,12.129,0,0,1-4509.233-1630.215Zm-3.256-.108a8.872,8.872,0,0,0-8.765-8.882,8.964,8.964,0,0,0-8.935,8.9,8.945,8.945,0,0,0,8.954,8.872A8.854,8.854,0,0,0-4512.489-1630.322Z" transform="translate(-24.882 -199.564)"/>
    <path id="Path_378" data-name="Path 378" d="M-4476.01-1750.486v3.052h-51.582v-3.052Z" transform="translate(-28.992 -123.763)"/>
    <path id="Path_379" data-name="Path 379" d="M-4483.45-1822.121v3.042H-4527.5v-3.042Z" transform="translate(-29.054 -73.499)"/>
    <path id="Path_380" data-name="Path 380" d="M-4527.577-1671.529v-3.078h43.384v3.078Z" transform="translate(-29.002 -177.005)"/>
    <path id="Path_381" data-name="Path 381" d="M-4527.851-1714.64h43.375v3.146c-3.84,0-7.595,0-11.35,0q-15.089-.013-30.178-.027C-4528.147-1711.522-4528.147-1711.5-4527.851-1714.64Z" transform="translate(-28.713 -148.915)"/>
    <path id="Path_382" data-name="Path 382" d="M-4527.515-1857.826h44.042v3.026h-44.042Z" transform="translate(-29.046 -48.446)"/>
    <path id="Path_383" data-name="Path 383" d="M-4527.581-1541.192v-3.07h30.235v3.07Z" transform="translate(-29 -268.464)"/>
    <path id="Path_384" data-name="Path 384" d="M-4347.2-1882.82h13.785v3.177H-4350.3v-14.687h3.1Z" transform="translate(-153.393 -22.832)"/>
  </g>
</svg>
