<svg xmlns="http://www.w3.org/2000/svg" width="151.628" height="99.826" viewBox="0 0 151.628 99.826">
  <g id="Group_73" data-name="Group 73" transform="translate(838.681 -4325.751)">
    <path id="Path_297" data-name="Path 297" d="M-348.5,4569.462c0,1.528.019,3.034,0,4.54a3.107,3.107,0,0,1-2.6,3.312,3.113,3.113,0,0,1-3.632-3.278c-.03-1.509-.006-3.019-.006-4.492-1.461-.47-2.9-.812-4.238-1.386a13.251,13.251,0,0,1-7.881-9.242,4.993,4.993,0,0,1-.116-1.755,2.6,2.6,0,0,1,1.56-2.342,2.691,2.691,0,0,1,3.093.648,10.656,10.656,0,0,1,1.788,2.785,8.031,8.031,0,0,0,5.744,4.954v-12.641c-1.466-.475-2.946-.882-4.372-1.43-2.9-1.114-5.394-2.826-6.316-5.925-1.39-4.67-.452-9.724,4.271-12.84a18.126,18.126,0,0,1,6.465-2.538c0-1.865-.013-3.732.008-5.6a7.233,7.233,0,0,1,.178-1.655,2.972,2.972,0,0,1,3-2.215,2.8,2.8,0,0,1,2.882,2.326c.191,1.889.148,3.8.167,5.707.015,1.513-.018,1.549,1.394,1.853a13.576,13.576,0,0,1,10.092,8.247,12.988,12.988,0,0,1,.774,3.514,2.36,2.36,0,0,1-1.423,2.39,2.564,2.564,0,0,1-2.8-.154,5.449,5.449,0,0,1-2.078-2.793,8.564,8.564,0,0,0-5.9-5.45c-.018.4-.045.711-.045,1.024,0,3.125.039,6.251-.029,9.375a1.257,1.257,0,0,0,1.13,1.471,18.7,18.7,0,0,1,6.606,2.684c4.8,3.48,6.083,10.744,2.591,15.351-2.232,2.944-5.369,4.438-8.881,5.26C-347.519,4569.271-347.965,4569.352-348.5,4569.462Zm.077-17.428v11.7c3.261-.571,5.6-2.782,5.708-5.322C-342.581,4555.2-344.526,4553-348.421,4552.034Zm-6.382-8.161v-10c-2.3.156-4.945,2.866-5.029,5.1C-359.914,4541.161-357.471,4543.563-354.8,4543.873Z" transform="translate(-378.844 -154.703)"/>
    <path id="Path_298" data-name="Path 298" d="M-701.413,4368.184v50.941h1.211c3.313,0,6.625-.012,9.937.015a3.167,3.167,0,0,1,3.128,2.369,3.186,3.186,0,0,1-1.772,3.675,6.393,6.393,0,0,1-2.4.376q-34.486.028-68.972.015-37.093,0-74.187,0a4.207,4.207,0,0,1-3.2-.951,3.1,3.1,0,0,1-.848-3.329,3.025,3.025,0,0,1,2.777-2.141c2.754-.042,5.51-.024,8.264-.031h1.2v-51.737c-1.576,1.257-3.033,2.446-4.52,3.6a3.077,3.077,0,0,1-3.823.2c-1.923-1.374-1.966-3.755-.042-5.345,3.486-2.879,7-5.724,10.505-8.582l27.038-22.06c3.378-2.757,6.745-5.526,10.133-8.27,1.94-1.571,3.2-1.563,5.166.039q15.281,12.465,30.547,24.947c.355.29.714.575,1.142.92q2.9-2.357,5.79-4.7,5.986-4.876,11.971-9.755a3.278,3.278,0,0,1,4.632.028q14.609,11.886,29.2,23.79c1.574,1.284,3.145,2.573,4.7,3.881a3.013,3.013,0,0,1,1.108,2.8,3.178,3.178,0,0,1-5.193,2.144C-699.057,4370.146-700.149,4369.209-701.413,4368.184ZM-708,4419.062c.017-.379.043-.7.043-1.02q0-27.1.018-54.209a1.812,1.812,0,0,0-.764-1.562q-10.363-8.457-20.7-16.943c-.218-.178-.465-.322-.7-.484-5.821,4.753-11.587,9.455-17.345,14.167-2.038,1.667-3.265,1.708-5.311.04q-12.614-10.287-25.211-20.595-3.221-2.632-6.46-5.267-17.5,14.309-34.837,28.528a1.818,1.818,0,0,0-.468,1.27q-.034,27.546-.017,55.094c0,.316.036.632.056.977h26v-1.129q0-5.9,0-11.806c0-1.9-.027-3.8.008-5.706a3.211,3.211,0,0,1,3.583-3.491q5.706-.009,11.412,0a4.252,4.252,0,0,1,1.252.153c1.6.5,2.287,1.586,2.29,3.577q.012,8.608,0,17.217v1.186Zm-79.191,0h5.508v-15.619h-5.508Z"/>
    <path id="Path_299" data-name="Path 299" d="M-661.316,4529.063c6.722,0,13.444.063,20.164-.031a3.549,3.549,0,0,1,3.948,3.961c-.124,4.751-.033,9.507-.037,14.262a3.282,3.282,0,0,1-3.645,3.638q-20.361.008-40.722,0c-2.608,0-3.83-1.245-3.832-3.875q-.006-7.132,0-14.263c0-2.468,1.216-3.688,3.665-3.689Q-671.545,4529.057-661.316,4529.063Zm-17.614,15.342c2.331,0,4.615.017,6.9-.034.168,0,.46-.487.465-.751.04-1.965.022-3.932.023-5.9,0-.708,0-1.414,0-2.13h-7.386Zm27.765-8.836c0,2.826-.008,5.6.022,8.369a.677.677,0,0,0,.485.447c2.282.03,4.563.021,6.9.021v-8.837Zm-6.462.012h-7.326v8.826c2.322,0,4.572.014,6.821-.029.172,0,.464-.4.48-.635.059-.847.025-1.7.025-2.55C-657.626,4539.337-657.626,4537.483-657.626,4535.58Z" transform="translate(-123.078 -163.273)"/>
  </g>
</svg>
