<svg xmlns="http://www.w3.org/2000/svg" width="127.211" height="127.052" viewBox="0 0 127.211 127.052">
  <g id="Group_67" data-name="Group 67" transform="translate(1856.897 -2025.463)">
    <path id="Path_251" data-name="Path 251" d="M-1729.688,2080.123q-4.372-4.353-8.746-8.706c-2.248-2.229-2.648-2.275-4.8-.045-2.8,2.9-5.476,5.912-8.226,8.855.059-1.332-.137-2.663-.138-3.995-.012-15.789-.109-49.451-.109-50.769H-1856.9v99.009a2.789,2.789,0,0,0,2.058,2.737.875.875,0,0,0,.619-.024c.667-.364.82-1.712,1.139-2.653a3.251,3.251,0,0,0,.015-.988l0-90.919v-3.318c.89-.034,64.45,0,95.75-.05,1.944,0,2.354.749,2.349,2.485-.044,16.561-.015,33.121-.064,49.682a3.779,3.779,0,0,1-.859,2.415c-4.43,4.571-8.82,9.2-13.544,13.454-1.067.961-3.406.692-5.133.579-.331-.022-.757-1.967-.763-3.027-.056-10.35-.038-20.7-.025-31.052,0-.969.109-1.938.182-3.152,1.189,0,2.165,0,3.14,0,5.165.03,5.512.66,5.432-5.406-.063-4.777-.019-4.758-4.925-4.78-2.6-.011-5.1.186-7.566-1.476-7.4-4.985-15.028-9.629-22.509-14.5a3.988,3.988,0,0,0-4.978-.006c-6.072,4-12.332,7.721-18.32,11.841-4.036,2.776-8.088,4.942-13.12,4.212a6.145,6.145,0,0,0-1.136-.052c-1.618.131-2.452.9-2.28,2.761a29.974,29.974,0,0,1,0,4.774c-.121,1.818.627,2.654,2.358,2.63,1.962-.026,3.926-.006,5.974-.006.137,1.025-.261,21.968-.37,31.788-.06,5.414.464,5.728-1.679,5.722-7.238-.022-6.2-.628-6.267,6.171-.038,3.815.144,3.968,4.124,3.968q26.829,0,53.657-.013h3.212c-1.026,1.132-1.582,1.8-2.193,2.412-3.854,3.87-7.766,7.681-11.549,11.617a11.2,11.2,0,0,0-2.435,3.868c-1.348,3.646-2.53,7.354-3.668,11.072-.238.776-.34,2.069.094,2.458a3.177,3.177,0,0,0,2.617.433c4.183-1.253,8.325-2.645,12.45-4.078a5.688,5.688,0,0,0,1.983-1.43q5.443-5.446,10.823-10.956c.942-.959,2.076-2.073.767-3.349s-2.363-.158-3.343.825c-3.382,3.4-6.792,6.764-9.879,9.831l-6.262-5.889q21.369-21.41,42.57-42.653c1.983,1.88,3.787,3.573,6.495,6.14-.724.724-1.46,1.314-2.1,1.948q-9.791,9.7-19.513,19.476c-.468.468-1.129.883-1.32,1.452-.025.072-.046.144-.064.218a1.861,1.861,0,0,0,2.072,2.339,1.307,1.307,0,0,0,.439-.168,20.29,20.29,0,0,0,3.048-2.895c1.242-1.223,2.486-2.443,3.908-3.841.367.941.433,1.016.409,1.368-.385,5.472-.591,10.4-.642,15.534-.054,5.482.4,5.444-1.505,5.43-4.885-.037-9.771.046-14.656-.043-1.977-.036-2.689.914-2.717,2.677-.036,2.235-.048,4.47-.053,6.706-.009,3.285,0,6.57,0,9.867h-78.409c0-3.746.079-7.295-.053-10.836a2.157,2.157,0,0,0-3.062-1.861h0a1.234,1.234,0,0,0-.715,1.12v14.119c.036,1.464,2.338,1.276,3.51,1.279q39.5.109,79.005-.016a6.174,6.174,0,0,0,3.871-1.628q8.838-8.539,17.377-17.384a5.867,5.867,0,0,0,1.457-3.661c.128-8.114-.007-16.232.138-24.346a6.582,6.582,0,0,1,1.6-3.849c6.673-6.9,13.484-13.658,20.252-20.462Zm-59.647,53.516-6.518,2.13c.158-.807.184-1.12.281-1.408.627-1.843,1.269-3.68,2.151-6.226Zm-33.072-84.749c5.489-3.536,10.962-7.1,16.521-10.517a3.557,3.557,0,0,1,3.014-.327c5.925,3.615,11.738,7.413,17.578,11.167a12.475,12.475,0,0,1,1.181,1.067h-39.895A16.463,16.463,0,0,1-1822.407,2048.89Zm-13.9,7.963a.852.852,0,0,1-.341-.09,1.375,1.375,0,0,1-.246-2.251.992.992,0,0,1,.614-.3q32.615-.081,65.232,0c.146,0,.592-.035.672.29v1.682a.61.61,0,0,1-.557.606c-.557.05-1.092.1-1.627.1q-26.417.012-52.834.006C-1829.036,2056.9-1832.675,2056.961-1836.31,2056.853Zm57.554,38.387c.023,2.268-.611,3.2-2.929,2.917a35.9,35.9,0,0,0-4.109-.028v-37.376h6.83c.055.942.15,1.817.151,2.693C-1778.8,2074.043-1778.863,2084.642-1778.756,2095.24Zm-10.917.4c.015,1.938-.513,2.559-2.5,2.533-8.02-.105-16.043-.078-24.064-.015-1.648.013-2.414-.421-2.406-2.2.049-11.164.029-22.329.043-33.493a14.67,14.67,0,0,1,.235-1.722h28.458c.066.74.185,1.446.186,2.152C-1789.71,2073.808-1789.757,2084.725-1789.673,2095.641Zm-39.57-31.667v-2.881a3.73,3.73,0,0,1,.608-.344c6.626-.665,6.624-.664,6.622,5.931,0,9.523-.068,19.048.048,28.57.027,2.283-.632,3.037-2.935,2.927-4.984-.238-4.314.642-4.332-4.39C-1829.269,2083.85-1829.244,2073.912-1829.243,2063.974Zm52.028,40.453a6.533,6.533,0,0,1-1.685.187c-18.783-.075-37.566-.043-56.35-.052a4.774,4.774,0,0,1-2.178-.213,1.751,1.751,0,0,1-.46-1.684,2.28,2.28,0,0,1,1.675-1c3.886-.1,7.776-.085,11.665-.086q23.457-.007,46.916.009h.031A1.447,1.447,0,0,1-1777.215,2104.427Zm6.4,40.96v-12.071h11.991Zm31.46-60.094-6.343-6.187,4.593-4.549,6.417,6.4Z" transform="translate(0 0)"/>
    <path id="Path_252" data-name="Path 252" d="M-1804.692,2193.685q-6.576,0-13.153,0c-1.335,0-2.808.29-2.567,1.845.113.725,1.7,1.728,2.628,1.742,8.684.133,17.371.078,26.057.078,1.319,0,2.826-.2,2.53-1.835-.134-.742-1.663-1.706-2.595-1.747C-1796.084,2193.581-1800.39,2193.685-1804.692,2193.685Z" transform="translate(-12.303 -56.758)"/>
    <path id="Path_253" data-name="Path 253" d="M-1820.421,2179.382c.1.66,1.6,1.532,2.488,1.569,4.039.169,8.089.074,12.135.074v-.009c3.963,0,7.927-.02,11.891.012,1.325.01,2.7-.055,2.739-1.7.037-1.7-1.42-1.764-2.7-1.764q-12.014,0-24.029.01C-1819.2,2177.571-1820.677,2177.732-1820.421,2179.382Z" transform="translate(-12.299 -51.326)"/>
    <path id="Path_254" data-name="Path 254" d="M-1817.486,2164.6c3.961.177,7.936.077,11.905.076,4.135,0,8.274.094,12.4-.079a1.462,1.462,0,0,0,.456-.1,1.641,1.641,0,0,0-.008-3.033,1.322,1.322,0,0,0-.429-.084q-12.154-.186-24.311,0a1.33,1.33,0,0,0-.431.083,1.644,1.644,0,0,0-.027,3.038A1.391,1.391,0,0,0-1817.486,2164.6Z" transform="translate(-12.812 -45.834)"/>
    <path id="Path_255" data-name="Path 255" d="M-1777.885,2097.158c-.682-.1-1.707-.81-1.8-1.371a29,29,0,0,1-.086-4.737c1.656,0,2.966.255,4.1-.082a2.1,2.1,0,0,0,.558-.268,1.838,1.838,0,0,0-.5-3.288l-.026-.007a17.9,17.9,0,0,0-3.876-.071c.142-.2-.928-3.83-1.82-3.959-2.83-.41-1.315,2.567-2.4,3.823-.3.039-.707.1-1.111.141-3.008.288-4.3,1.407-4.919,4.272-.778,3.591.146,7.154,2.211,8.334a2.973,2.973,0,0,0,1.611.521c2.579-.29,2.842,1.252,2.7,3.2-.067.894-.1,1.793-.163,3.1a17.432,17.432,0,0,0-3.944.073c-.849.213-2.037.988-2.183,1.7-.3,1.486.99,1.859,2.255,1.883,1.217.023,2.436.006,3.451.006,1.075,1.473-.189,4.26,2.372,3.921.947-.125,1.626-2.267,2.641-3.814,4.693-.691,5.518-1.637,5.518-6.908,0-.413.006-.826,0-1.239C-1773.342,2099.051-1774.652,2097.649-1777.885,2097.158Zm-5.485-1.163c-.131.441-.662,1.052-1.032,1.063-.552.018-1.578-.385-1.6-.678a25.393,25.393,0,0,1,.077-4.817c.022-.21,1.512-.6,1.655-.4a6.178,6.178,0,0,1,.948,2.894A7.012,7.012,0,0,1-1783.371,2095.995Zm6.27,9.811c-.054.234-.329.416-.734.607a1.383,1.383,0,0,1-1.966-1.236,29.29,29.29,0,0,1,.068-3.211c.046-.476.711-1.281,1.045-1.257.584.042,1.55.543,1.615.965A11.171,11.171,0,0,1-1777.1,2105.806Z" transform="translate(-22.558 -19.53)"/>
  </g>
</svg>
