<svg xmlns="http://www.w3.org/2000/svg" width="120.05" height="119.234" viewBox="0 0 120.05 119.234">
  <g id="Group_638" data-name="Group 638" transform="translate(5631.517 1218.435)">
    <path id="Path_369" data-name="Path 369" d="M-5631.517-916.632c.067-.771.173-1.542.194-2.315q.409-15.055.8-30.111.018-.7.054-1.406c.119-2.406.766-3.03,3.172-2.968q8.26.212,16.519.46a2.254,2.254,0,0,1,2.5,2.56c0,1.079,0,2.158,0,3.288,1.714-.645,3.313-1.361,4.978-1.854a28.534,28.534,0,0,1,22.232,2.239,20.66,20.66,0,0,0,9.618,2.557c4.335.051,8.671.366,13,.316,6.157-.07,11.036,2.08,14.286,7.555.448-.2.87-.379,1.285-.575,5.5-2.6,10.987-5.237,16.513-7.787a11.218,11.218,0,0,1,14.229,4.076c1.077,1.684.873,2.768-.785,3.841-13.01,8.425-25.987,16.9-39.062,25.221-3.445,2.192-7.477,2.823-11.531,3.121-4.663.342-9.042-.933-13.439-2.19-7.013-2-14.05-3.921-21.053-5.954a8.877,8.877,0,0,0-7.424.861,30.35,30.35,0,0,1-3,1.589,1.38,1.38,0,0,0-.871,1.45c-.043,2.441-.755,3.1-3.223,3.037-5.468-.141-10.935-.32-16.4-.44a2.753,2.753,0,0,1-2.594-1.651Zm114.479-22.792a6.553,6.553,0,0,0-7.572-1.139c-4.418,2.063-8.818,4.162-13.227,6.247q-2.416,1.143-4.834,2.294c.068.569.134,1.031.179,1.5.255,2.679-.594,3.623-3.246,3.554q-9.489-.246-18.979-.518c-2.147-.059-4.3-.092-6.442-.191a2.234,2.234,0,0,1-2.176-3.068,2.36,2.36,0,0,1,2.58-1.388q11.188.323,22.377.6c.365.009.732,0,1.214,0-.154-.538-.239-.913-.367-1.273a9.791,9.791,0,0,0-9.253-6.517c-4.295-.134-8.593-.2-12.888-.332-1.794-.055-3.592-.137-5.377-.321-3.452-.357-6.409-2.082-9.506-3.472-7.887-3.543-15.615-3.067-23.111,1.256a1.521,1.521,0,0,0-.887,1.458c-.148,6.874-.344,13.747-.523,20.62-.01.364,0,.729,0,1.268.608-.3,1.032-.483,1.425-.717a13.262,13.262,0,0,1,11.042-1.247c5.609,1.656,11.245,3.226,16.888,4.765a104.165,104.165,0,0,0,11.9,2.972,21.055,21.055,0,0,0,14.916-3.114q15.038-9.743,30.087-19.468C-5520.9-936.906-5518.979-938.161-5517.037-939.425Zm-109-9.494c-.315,11.55-.627,22.93-.94,34.415l13.246.365c.319-11.537.634-22.919.952-34.408Z" transform="translate(0 -190.846)"/>
    <path id="Path_370" data-name="Path 370" d="M-5463.661-1143.328a10.265,10.265,0,0,0-6.214,1.534,13.459,13.459,0,0,1-14.041.027,12.055,12.055,0,0,0-6.242-1.619,13.227,13.227,0,0,1-12.366-7.022,10.108,10.108,0,0,0-4.157-3.987c-4.926-2.628-7.441-6.719-7.283-12.366a8.615,8.615,0,0,0-1.366-5c-3.116-4.864-3.148-9.745-.041-14.623a9.1,9.1,0,0,0,1.409-5.227,12.59,12.59,0,0,1,7.112-12.109,11.153,11.153,0,0,0,4.469-4.321,13.007,13.007,0,0,1,11.908-6.781,13.474,13.474,0,0,0,6.8-1.753,13.235,13.235,0,0,1,13.622.063,12.894,12.894,0,0,0,6.577,1.688,13.1,13.1,0,0,1,12.076,6.906,10.61,10.61,0,0,0,4.32,4.143,12.748,12.748,0,0,1,7.21,12.192,9.669,9.669,0,0,0,1.516,5.428,12.478,12.478,0,0,1-.018,14.121,9.691,9.691,0,0,0-1.5,5.433,12.724,12.724,0,0,1-7.139,12.116,10.054,10.054,0,0,0-4.226,3.916A13.513,13.513,0,0,1-5463.661-1143.328Zm-25.41-4.526a13.563,13.563,0,0,1,7.155,2.1,9.134,9.134,0,0,0,9.885.043,15,15,0,0,1,8.261-2.136,8.955,8.955,0,0,0,8.657-4.931,13.279,13.279,0,0,1,5.746-5.506,8.569,8.569,0,0,0,5.038-8.528,12.308,12.308,0,0,1,2.025-7.331,8.406,8.406,0,0,0-.014-9.967,12.036,12.036,0,0,1-2.008-7.217,8.679,8.679,0,0,0-5.165-8.693,13.026,13.026,0,0,1-5.636-5.454,8.942,8.942,0,0,0-8.669-4.905,14.991,14.991,0,0,1-8.259-2.15,9.06,9.06,0,0,0-9.778.014,14.99,14.99,0,0,1-8.261,2.136,8.964,8.964,0,0,0-8.653,4.935A12.944,12.944,0,0,1-5504.4-1200a8.563,8.563,0,0,0-5.108,8.591,12.1,12.1,0,0,1-2,7.222,8.482,8.482,0,0,0,.012,10.171,11.541,11.541,0,0,1,1.976,6.991c-.188,4.2,1.644,7.082,5.348,8.927a11.981,11.981,0,0,1,5.248,5.039C-5496.889-1149.35-5493.8-1147.629-5489.071-1147.853Z" transform="translate(-81.98 0)"/>
    <path id="Path_371" data-name="Path 371" d="M-5396.288-1159.248a7.98,7.98,0,0,1-.553,1.255q-13.03,20.908-26.088,41.8c-.842,1.348-2.134,1.727-3.266,1.02s-1.359-2.02-.51-3.382q13.034-20.906,26.086-41.8a2.271,2.271,0,0,1,2.737-1.247A2.348,2.348,0,0,1-5396.288-1159.248Z" transform="translate(-147.129 -40.851)"/>
    <path id="Path_372" data-name="Path 372" d="M-5344.527-1066.1a11.264,11.264,0,0,1-3.708,7.882,8.885,8.885,0,0,1-12.306-.018,12.3,12.3,0,0,1-.839-16.676,9.085,9.085,0,0,1,14.683.85A13.014,13.014,0,0,1-5344.527-1066.1Zm-4.448-.82a7.384,7.384,0,0,0-2.094-5.423,4.494,4.494,0,0,0-6.589-.027,7.868,7.868,0,0,0-.023,10.71,4.525,4.525,0,0,0,6.754-.142A7.456,7.456,0,0,0-5348.975-1066.924Z" transform="translate(-192.488 -100.957)"/>
    <path id="Path_373" data-name="Path 373" d="M-5430.628-1147.3a12.257,12.257,0,0,1-2.818,8.49,9,9,0,0,1-13.868.226,12.366,12.366,0,0,1-.081-16.1,9.071,9.071,0,0,1,14.6.956A11.411,11.411,0,0,1-5430.628-1147.3Zm-4.473.616a7.307,7.307,0,0,0-1.8-5.063,4.562,4.562,0,0,0-7-.162,7.925,7.925,0,0,0,0,10.462,4.548,4.548,0,0,0,6.92-.088A7.275,7.275,0,0,0-5435.1-1146.68Z" transform="translate(-130.483 -43.58)"/>
  </g>
</svg>
