<svg xmlns="http://www.w3.org/2000/svg" width="126.345" height="108.222" viewBox="0 0 126.345 108.222">
  <g id="Group_623" data-name="Group 623" transform="translate(-95.043 -277.681)">
    <circle id="Ellipse_74" data-name="Ellipse 74" cx="45.645" cy="45.645" r="45.645" transform="translate(129.098 293.613)" fill="none" stroke="#1a1818" stroke-width="2"/>
    <circle id="Ellipse_75" data-name="Ellipse 75" cx="35.125" cy="35.125" r="35.125" transform="translate(139.796 304.311)" fill="none" stroke="#1a1818" stroke-width="2"/>
    <circle id="Ellipse_76" data-name="Ellipse 76" cx="5.706" cy="5.706" r="5.706" transform="translate(169.037 333.553)" fill="none" stroke="#1a1818" stroke-width="2"/>
    <line id="Line_435" data-name="Line 435" y2="19.613" transform="translate(174.743 314.475)" fill="none" stroke="#1a1818" stroke-width="2"/>
    <line id="Line_436" data-name="Line 436" x2="19.791" transform="translate(149.781 339.258)" fill="none" stroke="#1a1818" stroke-width="2"/>
    <line id="Line_437" data-name="Line 437" x2="50.281" transform="translate(111.981 314.118)" fill="none" stroke="#1a1818" stroke-width="2"/>
    <line id="Line_438" data-name="Line 438" x2="53.846" transform="translate(103.601 326.242)" fill="none" stroke="#1a1818" stroke-width="2"/>
    <line id="Line_439" data-name="Line 439" x2="49.746" transform="translate(95.043 339.258)" fill="none" stroke="#1a1818" stroke-width="2"/>
    <line id="Line_440" data-name="Line 440" x2="54.56" transform="translate(103.423 351.739)" fill="none" stroke="#1a1818" stroke-width="2"/>
    <line id="Line_441" data-name="Line 441" x2="50.281" transform="translate(111.803 364.398)" fill="none" stroke="#1a1818" stroke-width="2"/>
    <line id="Line_442" data-name="Line 442" x2="3.031" y2="4.101" transform="translate(142.292 300.835)" fill="none" stroke="#1a1818" stroke-width="2"/>
    <line id="Line_443" data-name="Line 443" x2="3.388" y2="4.279" transform="translate(149.156 295.753)" fill="none" stroke="#1a1818" stroke-width="2"/>
    <line id="Line_444" data-name="Line 444" x2="0.089" y2="5.527" transform="translate(168.235 288.175)" fill="none" stroke="#1a1818" stroke-width="2"/>
    <line id="Line_445" data-name="Line 445" x2="0.178" y2="6.33" transform="translate(180.983 287.997)" fill="none" stroke="#1a1818" stroke-width="2"/>
    <line id="Line_446" data-name="Line 446" x1="4.19" y2="5.616" transform="translate(198.1 294.148)" fill="none" stroke="#1a1818" stroke-width="2"/>
    <line id="Line_447" data-name="Line 447" x1="4.012" y2="5.26" transform="translate(204.875 299.408)" fill="none" stroke="#1a1818" stroke-width="2"/>
    <path id="Path_630" data-name="Path 630" d="M223.851,309.125l-13.506,10.3-5.26-7.177,13.328-9.628Z" transform="translate(-71.619 -15.578)" fill="none" stroke="#1a1818" stroke-width="2"/>
    <path id="Path_631" data-name="Path 631" d="M312.866,278.681l.089,9.093-25.274.178.178-9.272Z" transform="translate(-125.375)" fill="none" stroke="#1a1818" stroke-width="2"/>
    <path id="Path_632" data-name="Path 632" d="M396.193,296.17l13.64,9.717-5.349,6.508-13.016-9.806Z" transform="translate(-192.923 -11.383)" fill="none" stroke="#1a1818" stroke-width="2"/>
  </g>
</svg>
