<svg id="Group_87" data-name="Group 87" xmlns="http://www.w3.org/2000/svg" width="119.016" height="108.304" viewBox="0 0 119.016 108.304">
  <path id="Path_366" data-name="Path 366" d="M-5019.813-746.962c-5.7-5.417-11.431-10.814-17.106-16.262a6.663,6.663,0,0,0-7.154-1.751,1.554,1.554,0,0,1-1.35-.246c-1.109-1.268-2.1-2.637-3.237-4.1-.042-.055,3.9-6.292,4.22-6.963a41.226,41.226,0,0,0,2.813-7.72,44.691,44.691,0,0,0,.891-16.726,42.348,42.348,0,0,0-6.486-17.688,45.662,45.662,0,0,0-12.745-12.786,43.692,43.692,0,0,0-32.137-6.239,43.143,43.143,0,0,0-14.584,5.537,45.551,45.551,0,0,0-10.926,9.959,42.448,42.448,0,0,0-7.18,13.458c-.267.828-.745.993-1.528.981-2.658-.04-5.32.043-7.977-.041-1.436-.045-2.034.466-2.027,1.915q.048,10.609.009,21.219c-.006,1.384.569,1.9,1.914,1.872,2.6-.049,5.211.021,7.816-.03a1.665,1.665,0,0,1,1.935,1.342,43.41,43.41,0,0,0,66.033,21.646c.5-.354.752-.318.926-.2,1.268.9,2.6,1.729,3.768,2.745a2.118,2.118,0,0,1,.484,1.746,6.583,6.583,0,0,0,1.966,6.674c5.909,5.588,11.788,11.208,17.708,16.785a6.207,6.207,0,0,0,9.006-.055c1.732-1.649,3.4-3.369,5.091-5.058C-5016.476-740.132-5016.528-743.843-5019.813-746.962Zm-113.806-38.168v-19.793h19.722v19.793Zm55.57,30.53c-22.438,2.951-39.6-12.163-44.229-27.895,1.943,0,3.816-.047,5.682.049.287.015.616.656.8,1.064q7.62,16.974,25.8,20.878c.362.078.737.106,1.1.166,1.847.308,3,.9,3.528,2.474.177.53.941,1.309,1.334,1.252a2.356,2.356,0,0,0,1.489-1.3,3.141,3.141,0,0,1,2.969-2.216,34.853,34.853,0,0,0,31.032-36.722,35.1,35.1,0,0,0-30.769-32.707,34.718,34.718,0,0,0-36.269,20.633,2,2,0,0,1-2.236,1.428c-1.417-.052-2.859-.025-4.442-.025,3.271-12.714,18.1-29.754,41.653-28.078a40.773,40.773,0,0,1,37.588,37.16A40.549,40.549,0,0,1-5078.05-754.6Zm-33.259-30.592c-.052-6.645-.026-13.29.031-19.935.012-1.427-.093-2.588-1.935-2.5,2.617-7.622,11.622-17.57,25.06-19.365a32.5,32.5,0,0,1,33.242,16.845c6,11.048,4.876,25.8-2.789,34.843a27.647,27.647,0,0,0-14.074-17.062,16.4,16.4,0,0,0,3.718-14.154,15.86,15.86,0,0,0-5.7-9.336,16.209,16.209,0,0,0-20.837.292,15.716,15.716,0,0,0-5.647,11.368A16.578,16.578,0,0,0-5096-792.083a27.973,27.973,0,0,0-13.507,16.934c-1.5-2.623-2.739-4.8-4.143-7.255C-5111.277-782.4-5111.3-783.684-5111.309-785.193Zm31.655,10.892c-.96-3.856-1.759-7.752-2.614-11.633-.064-.293-.009-.612.235-.537,2.6-1.236,5.183-2.5,7.8-3.68a1.729,1.729,0,0,1,1.307.113,23.957,23.957,0,0,1,12.9,16.3,2.066,2.066,0,0,1-.312,1.579c-3.913,4.823-13.457,9.359-19.775,9.394C-5077.521-766.627-5078.693-770.444-5079.654-774.3Zm-8.562,10.447c.158.337.219.579.465,1.258-2.036-.5-3.829-.862-5.57-1.39a32.67,32.67,0,0,1-12.744-7.55,2.716,2.716,0,0,1-.879-3.188,24.65,24.65,0,0,1,11.824-14.927,2.106,2.106,0,0,1,2.3.088c2.248,1.114,4.614,1.987,7.228,3.08-1.012,4.634-2.083,9.539-3.156,14.443a5.975,5.975,0,0,1-.192.771C-5089.875-768.681-5089.409-766.4-5088.216-763.855Zm-9.528-39.47a13.819,13.819,0,0,1,13.919-13.665,13.886,13.886,0,0,1,13.588,14.027,13.816,13.816,0,0,1-13.873,13.572A13.735,13.735,0,0,1-5097.744-803.325Zm10.717,35.185c.942-4.34,1.917-8.673,3.186-13.046.415,1.725.849,3.445,1.238,5.176.512,2.273,1.07,4.541,1.44,6.838a5.837,5.837,0,0,1-.28,2.863c-.666,1.766-1.565,3.445-2.534,5.513-1.077-2.341-1.994-4.308-2.879-6.29A1.855,1.855,0,0,1-5087.027-768.14Zm32.974,7.178a2.812,2.812,0,0,1-.005-2.193c.218-.586.915-.995,1.4-1.479,2.037-2.019,2.231-2.016,4.281.084.665.682,1.325,1.368,1.97,2.069.091.1.078.294.092.355-.012,1.917-2.323,4.3-4.151,4.311a1.537,1.537,0,0,1-.952-.42A16.91,16.91,0,0,1-5054.054-760.962Zm32.814,21.931q-2.654,2.752-5.4,5.41a3.539,3.539,0,0,1-5.157.1q-9.191-8.605-18.253-17.347a5.194,5.194,0,0,1-1-1.8,2.206,2.206,0,0,1-.024-1.725,1.775,1.775,0,0,1,1.457-1.04,6.936,6.936,0,0,0,5.636-5.6,2.13,2.13,0,0,1,2.914-1.744,6.033,6.033,0,0,1,2.291,1.345q8.717,8.178,17.357,16.436C-5019.41-743.079-5019.341-741-5021.239-739.031Z" transform="translate(5136.327 838.229)"/>
  <path id="Path_367" data-name="Path 367" d="M-4947.327-638.059a2.048,2.048,0,0,1-2.233-.5.646.646,0,0,1-.221-.436,1.96,1.96,0,0,1,1.025-1.424,62.22,62.22,0,0,1,6.132-2.073.916.916,0,0,1,.3-.029,1.312,1.312,0,0,1,1.1,1.872.515.515,0,0,1-.231.253C-4943.342-639.551-4945.284-638.833-4947.327-638.059Z" transform="translate(5009.309 704.971)"/>
  <path id="Path_368" data-name="Path 368" d="M-5112.984-717.07c1.9-3.027,5.779-9.458,6.062-9.593a5.994,5.994,0,0,1,1.333-.388.463.463,0,0,1,.548.344,4.4,4.4,0,0,1,.2,1.382c-.039.425-.464.816-.719,1.22-1.923,3.054-3.821,6.127-5.783,9.157-1.2,1.86-1.868,1.834-3.188.062q-2.33-3.13-4.7-6.231c-.572-.744-1.013-1.515-.066-2.188.886-.63,1.555-.1,2.123.672C-5115.858-720.839-5114.5-719.073-5112.984-717.07Z" transform="translate(5125.108 762.536)"/>
</svg>
