<svg xmlns="http://www.w3.org/2000/svg" width="102.531" height="110.582" viewBox="0 0 102.531 110.582">
  <path id="Path_633" data-name="Path 633" d="M280.287,420.582s-7.292-9.633-17.853-6.442a16.069,16.069,0,0,0-9.672,8.37L218.554,492.04a17.159,17.159,0,0,0-1.766,8.021c.213,8.165,3.426,23.428,24.907,20.615,22.91-3,39.956-41.183,41.047-48.82,0,0,.818-16.91-16.228-16.773,0,0-23.432,1.749-14.864,25.91,4.764,13.433,19.993,27.565,28.74,34.863a22.194,22.194,0,0,0,16.956,5c10.618-1.328,24.359-7.475,16.76-31.686Z" transform="translate(-215.282 -411.972)" fill="none" stroke="#1a1818" stroke-width="3"/>
</svg>
