<svg xmlns="http://www.w3.org/2000/svg" xmlns:xlink="http://www.w3.org/1999/xlink" width="1155.561" height="1006.472" viewBox="0 0 1155.561 1006.472">
  <defs>
    <filter id="Path_637" x="0" y="0" width="1155.561" height="1006.472" filterUnits="userSpaceOnUse">
      <feOffset input="SourceAlpha"/>
      <feGaussianBlur stdDeviation="7.5" result="blur"/>
      <feFlood flood-opacity="0.49"/>
      <feComposite operator="in" in2="blur"/>
      <feComposite in="SourceGraphic"/>
    </filter>
  </defs>
  <g transform="matrix(1, 0, 0, 1, 0, 0)" filter="url(#Path_637)">
    <path id="Path_637-2" data-name="Path 637" d="M1150.563,305.557a20.034,20.034,0,0,1-19.078-13.93H872.691v-.006H844.182a20.019,20.019,0,1,1-35.9-17.116L773.5,237.812v0L721.04,182.335h0l-35.172-37.75,0,0-12.258-11.837a19.973,19.973,0,0,1-21.01-3.082L536.1,206.138l-.115-.188-11.833,7.715a20.039,20.039,0,1,1-35.3-5.794l-43.455-53.6v0L397.379,94.914h0l-32.15-40.359h0l-13.686-15.43a19.678,19.678,0,0,1-6.486,1.083A20.032,20.032,0,0,1,326.132,26.7H279.847v.212s-14.813-.212-14.39-.212H62.106v-.005h-23.2a20.024,20.024,0,1,1,.376-12.156l41.421.03H261.274l-.049-.141h18.621v.141h45.986a20.029,20.029,0,1,1,35.8,16.856l12.023,14.252v0L406.009,86.34l42.955,52.927h0l49.744,61.382a19.932,19.932,0,0,1,17.729,2.543l13.325-7.4-.011-.018,116.313-76.846a20.027,20.027,0,1,1,36.9,5.384l10.614,10.771.005-.005,35.4,38.048L775.9,222.57h0l41.706,44.023a20.017,20.017,0,0,1,26.865,12.869l46.834.034h240.155a20.033,20.033,0,1,1,19.1,26.062Z" transform="matrix(0.79, 0.62, -0.62, 0.79, 210.62, 22.5)" fill="#090909" opacity="0.1"/>
  </g>
</svg>
